<svg id="Layer_1" data-name="Layer 1" xmlns="http://www.w3.org/2000/svg" viewBox="0 0 49 49"><defs><style>.cls-1{fill:#ff095b;}</style></defs><title>Anger_icon</title><g id="Page-1"><g id="Mood-Word-Analysis"><path class="cls-1" d="M24.5,0A24.5,24.5,0,1,0,49,24.5,24.5,24.5,0,0,0,24.5,0ZM11,15.37c3.15-.09,8.21,1.71,8.21,1.71a4.69,4.69,0,0,1-.13,1.23,1,1,0,0,1-.61.8,6.78,6.78,0,0,1-4.8.76,6.5,6.5,0,0,1-3-1.58S7.85,15.46,11,15.37Zm22.38,17.1A49,49,0,0,0,23.94,31a48.66,48.66,0,0,0-9.59,1.47c-0.64.15-.87-0.32-0.78-0.6,1.26-3.6,4.93-5.81,10.4-5.81s9.27,2.11,10.45,5.81A1,1,0,0,1,33.39,32.47Zm4.26-14.17a6.5,6.5,0,0,1-3,1.58,6.78,6.78,0,0,1-4.8-.76,1,1,0,0,1-.61-0.8,4.69,4.69,0,0,1-.13-1.23s5.05-1.8,8.21-1.71S37.65,18.29,37.65,18.29Z"/></g></g></svg>