<svg id="Layer_1" data-name="Layer 1" xmlns="http://www.w3.org/2000/svg" viewBox="0 0 175.56 66.23"><defs><style>.cls-1{fill:#b0dae4;}.cls-2{fill:#fff;}.cls-3{fill:#ebba16;}</style></defs><title>book blank</title><g id="Page-1"><g id="Artboard"><g id="Group"><g id="journal"><g id="Group-2"><path id="Shape" class="cls-1" d="M88.73,0.68H20c-3,0-5.81,1.58-6.3,3.54L0.22,58.54c-0.49,2,2.55,3.54,6.77,3.54l82.47,0.13Z" transform="translate(-0.17 -0.08)"/><path id="Shape-2" data-name="Shape" class="cls-1" d="M86.55,0.79l68.73-.71c3,0,5.83,1.52,6.34,3.47l14.06,54.19c0.51,1.95-2.51,3.57-6.73,3.61l-80.15.75Z" transform="translate(-0.17 -0.08)"/><polygon id="Rectangle-15" class="cls-2" points="21.31 3.58 84.61 3.58 84.61 56.09 9.01 56.09 21.31 3.58"/><polygon id="Rectangle-15-2" data-name="Rectangle-15" class="cls-2" points="154.77 2.21 91.49 3.32 92.4 55.83 167.99 54.51 154.77 2.21"/><polygon id="Shape-3" data-name="Shape" class="cls-3" points="29.25 66.23 25.75 61.35 18.82 64.21 22.56 55.88 31.36 56.65 29.25 66.23"/></g></g></g></g></g></svg>