<svg id="Layer_1" data-name="Layer 1" xmlns="http://www.w3.org/2000/svg" viewBox="0 0 47 47"><defs><style>.cls-1{fill:#62d921;}</style></defs><title>Disgust_icon</title><g id="Page-1"><g id="Mood-Word-Analysis"><path class="cls-1" d="M23.5,0A23.5,23.5,0,1,0,47,23.5,23.5,23.5,0,0,0,23.5,0Zm6.06,15.4a4,4,0,0,1,2.34-1.28,3.42,3.42,0,0,1,3,1.94,1.6,1.6,0,0,1,.23,1.1A10.23,10.23,0,0,1,35,18.67s-3.78,1.1-5.87.32S29.56,15.4,29.56,15.4Zm-17.17.83a3.42,3.42,0,0,1,3-1.94,4,4,0,0,1,2.34,1.28s2.53,2.82.44,3.6-5.87-.32-5.87-0.32a10.22,10.22,0,0,1-.19-1.51A1.6,1.6,0,0,1,12.39,16.23ZM35.79,31c-1.45,0-1.76-.78-3.1-0.78-1.1,0-1.88.78-4,.78-2.86,0-3.57-1.47-4.78-1.47S22,31,19.09,31c-2.12,0-3.21-.78-4.27-0.78-1.29,0-1.45.78-3.1,0.78A1.51,1.51,0,0,1,10,29.73c0-1.11,1.92-3,4.82-3s3.65,0.77,4.27.77c1,0,2.08-1.53,4.82-1.53s3.76,1.53,4.78,1.53c0.63,0,1.49-.77,4-0.77s4.74,1.85,4.74,3A1.51,1.51,0,0,1,35.79,31Z"/></g></g></svg>