<svg id="Layer_1" data-name="Layer 1" xmlns="http://www.w3.org/2000/svg" viewBox="0 0 49 49"><defs><style>.cls-1{fill:#bb57b9;}</style></defs><title>Fear_icon</title><g id="Page-1"><g id="Mood-Word-Analysis"><path class="cls-1" d="M24.5,0A24.5,24.5,0,1,0,49,24.5,24.5,24.5,0,0,0,24.5,0ZM11.91,19.11a4.38,4.38,0,0,1,3.53-4.51c2-.25,3.46,1.62,3.71,3.62s0.32,2.59-3.3,3S12.16,21.11,11.91,19.11ZM34,36.49c-1,.52-4.85,0-8.83,0-1.45,0-7,.52-8,0a1.47,1.47,0,0,1-1-1c-0.52-4.17,4.55-7.3,9.05-7.3s8.83,2.09,9.71,6.78A1.55,1.55,0,0,1,34,36.49Zm3.53-17.36c-0.25,2-.32,2.59-3.94,2.14s-3.55-1-3.3-3S32,14.37,34,14.62A4.38,4.38,0,0,1,37.58,19.13Z"/></g></g></svg>