<svg id="Layer_1" data-name="Layer 1" xmlns="http://www.w3.org/2000/svg" viewBox="0 0 202.38 200.31"><defs><style>.cls-1{fill:#ffd100;}.cls-2{fill:#ffda44;}</style></defs><title>full star</title><g id="Page-1"><g id="confirmation-page"><g id="Group-3"><g id="star"><g id="Capa_1" data-name="Capa 1"><path id="Shape" class="cls-1" d="M173.72,1.57l7,14.29a3.34,3.34,0,0,0,2.51,1.84L198.83,20a3.38,3.38,0,0,1,1.85,5.74l-11.3,11.12a3.39,3.39,0,0,0-1,3l2.67,15.71a3.34,3.34,0,0,1-4.84,3.55l-14-7.42a3.31,3.31,0,0,0-3.1,0l-14,7.42a3.34,3.34,0,0,1-4.84-3.55L153,39.84a3.39,3.39,0,0,0-1-3l-11.3-11.12A3.38,3.38,0,0,1,142.62,20l15.62-2.29a3.34,3.34,0,0,0,2.51-1.84l7-14.29a3.32,3.32,0,0,1,6,0h0Z" transform="translate(0.69 0.31)"/></g></g><g id="shooting-star"><g id="Capa_1-2" data-name="Capa 1"><g id="Group"><path id="Shape-2" data-name="Shape" class="cls-2" d="M-0.11,147.29c37.93-32.58,73.43-71,116.86-96.58,2.44-1.44,4.65,2.51,2.47,4.09C78.32,84.06,46.89,126.33,2.81,151.14c-2,1.16-4.7-2.26-2.92-3.84h0Z" transform="translate(0.69 0.31)"/><path id="Shape-3" data-name="Shape" class="cls-2" d="M32.55,163c27.36-28.76,61.07-49.63,85.55-81.47,1.33-1.74,4.18.51,3.08,2.28-20.8,33.32-53.17,59.93-84,83.81-3.27,2.47-7.49-1.55-4.62-4.62h0Z" transform="translate(0.69 0.31)"/><path id="Shape-4" data-name="Shape" class="cls-2" d="M54.68,194c30.42-36,67-67,98.22-102.3,1.33-1.54,4,.51,2.74,2.14C129.4,131.9,95,169.38,59.7,199a3.55,3.55,0,0,1-5-5h0Z" transform="translate(0.69 0.31)"/></g></g></g></g></g></g></svg>