<svg id="Layer_1" data-name="Layer 1" xmlns="http://www.w3.org/2000/svg" viewBox="0 0 50 50"><defs><style>.cls-1{fill:#fff;}</style></defs><title>github-logo</title><g id="Page-1"><g id="about"><g id="github-logo"><g id="Capa_1" data-name="Capa 1"><path id="Shape" class="cls-1" d="M25,24.87H25c-3.1,0-5.84-.79-7.45.7a4.08,4.08,0,0,0-1.38,3.12c0,4.82,3.86,5.42,8.83,5.42H25c5,0,8.83-.59,8.83-5.42a4.08,4.08,0,0,0-1.38-3.12c-1.62-1.48-4.35-.7-7.45-0.7h0Zm-4.22,6.59c-0.94,0-1.71-1.06-1.71-2.37s0.77-2.37,1.71-2.37,1.71,1.06,1.71,2.37-0.77,2.37-1.71,2.37h0Zm8.37,0c-0.94,0-1.71-1.06-1.71-2.37s0.77-2.37,1.71-2.37,1.71,1.06,1.71,2.37-0.77,2.37-1.71,2.37h0ZM25,0A25,25,0,1,0,50,25,25,25,0,0,0,25,0h0Zm2.28,35.26H22.72c-2,0-9.82-.15-9.82-9.61a7.13,7.13,0,0,1,2-5.09,11.7,11.7,0,0,1,.83-5.82s2.38,0.26,6,2.74A14.24,14.24,0,0,1,25,17.16a14.22,14.22,0,0,1,3.32.31c3.61-2.47,6-2.74,6-2.74a11.7,11.7,0,0,1,.83,5.82,7.13,7.13,0,0,1,2,5.09c0,9.46-7.84,9.61-9.83,9.61h0Z"/></g></g></g></g></svg>