<svg id="Layer_1" data-name="Layer 1" xmlns="http://www.w3.org/2000/svg" viewBox="0 0 33.81 30.97"><defs><style>.cls-1{fill:#1b2a59;}</style></defs><title>sign up_icon</title><g id="Page-1"><g id="mobile-hamburger-open"><g id="Group"><g id="Group-4"><g id="pencil-striped-symbol-for-interface-edit-buttons"><path id="Shape" class="cls-1" d="M33,9.08l-1,1-6-6,1-1a2.83,2.83,0,0,1,4,0l2,2a2.83,2.83,0,0,1,0,4h0Z" transform="translate(-0.03)"/></g><g id="piece-of-paper-and-pencil"><g id="Capa_1" data-name="Capa 1"><path id="Shape-2" data-name="Shape" class="cls-1" d="M27.89,7.89L25.62,5.6a1,1,0,0,0-1.36,0L23.13,6.73V1a1,1,0,0,0-1-1H1A1,1,0,0,0,0,1V30a1,1,0,0,0,1,1H22.17a1,1,0,0,0,1-1V18.62l7-7.08a1,1,0,0,0,0-1.37ZM21.21,29H2V1.94H21.21V8.67l-8,8a1,1,0,0,0-.26.49l-1.18,5.77a1,1,0,0,0,.26.88,1,1,0,0,0,.68.28l0.19,0,5.73-1.19a1,1,0,0,0,.49-0.26l2-2.06V29h0Zm-6.69-9.72,2,2L14,21.88l0.53-2.56h0Zm0.78-2,9.64-9.7,0.91,0.92L20,14.49c-0.38.38-2.85,2.49-2.47,2.87a3.29,3.29,0,0,0,1,.89,25.32,25.32,0,0,0,2.85-2.39l5.88-5.92,0.91,0.92-9.64,9.7Z" transform="translate(-0.03)"/></g></g></g></g></g></g></svg>