<svg id="Layer_1" data-name="Layer 1" xmlns="http://www.w3.org/2000/svg" viewBox="0 0 35 25.94"><defs><style>.cls-1{fill:#1b2a59;}</style></defs><title>login_icon</title><g id="Page-1"><g id="mobile-hamburger-open"><g id="logout-_1_" data-name="logout-(1)"><g id="Layer_1-2" data-name="Layer 1"><g id="_Group_" data-name="&lt;Group&gt;"><path id="_Path_" data-name="&lt;Path&gt;" class="cls-1" d="M29.57,11.41H11.14a1.59,1.59,0,1,0,0,3.17H29.57l-2.06,2a1.59,1.59,0,0,0,2.25,2.24l4.77-4.76,0.1-.12,0,0,0.07-.09,0,0,0.06-.1v0l0.06-.12v0l0-.13v0l0-.13v0s0-.07,0-0.11a1.56,1.56,0,0,0,0-.32s0-.08,0-0.11v0l0-.13v0l0-.13h0l-0.06-.12v0l-0.06-.11,0,0L34.66,12l0,0-0.1-.12L29.76,7.12a1.59,1.59,0,0,0-2.25,2.24l2.06,2h0Z" transform="translate(0 -0.03)"/><path id="_Path_2" data-name="&lt;Path&gt;" class="cls-1" d="M13,26a13,13,0,0,0,10.81-5.74,1.59,1.59,0,0,0-2.64-1.77,9.8,9.8,0,1,1,0-10.93A1.59,1.59,0,0,0,23.8,5.75,13,13,0,1,0,13,26h0Z" transform="translate(0 -0.03)"/></g></g></g></g></g></svg>