<svg id="Layer_1" data-name="Layer 1" xmlns="http://www.w3.org/2000/svg" viewBox="0 0 30.72 26.89"><defs><style>.cls-1{fill:#1b2a59;}</style></defs><title>feedback_hamburger</title><g id="Page-1"><g id="mobile-hamburger-open"><g id="speech-bubble"><g id="Layer_1-2" data-name="Layer 1"><path id="Shape" class="cls-1" d="M15.36,0.06A16.45,16.45,0,0,0,4.55,3.94,12.58,12.58,0,0,0,0,13.5a12.41,12.41,0,0,0,3,8,4.46,4.46,0,0,1-1.55,1.73A1.5,1.5,0,0,0,2,25.93a9.72,9.72,0,0,0,6.18-1.12,1.12,1.12,0,0,0,.39-1.54,1.14,1.14,0,0,0-1.56-.39,6.75,6.75,0,0,1-2.92.88A11.06,11.06,0,0,0,6,21.5c0.3-.61.28-0.69,0-1a10.33,10.33,0,0,1-3-7C3,7.32,8.14,3,15.36,3S28,8,28,13.5,23,23.5,15.5,24a25.94,25.94,0,0,1-3-.23,1.69,1.69,0,0,0-1.58,1.48,1.12,1.12,0,0,0,.88,1.33,17.51,17.51,0,0,0,3.57.37,16.47,16.47,0,0,0,10.81-3.89,12.59,12.59,0,0,0,4.55-9.56,12.58,12.58,0,0,0-4.55-9.56A16.45,16.45,0,0,0,15.36.06Z" transform="translate(0 -0.06)"/><ellipse id="Oval" class="cls-1" cx="15.52" cy="13.61" rx="1.65" ry="1.63"/><ellipse id="Oval-2" data-name="Oval" class="cls-1" cx="20.15" cy="13.61" rx="1.65" ry="1.63"/><ellipse id="Oval-3" data-name="Oval" class="cls-1" cx="10.89" cy="13.61" rx="1.65" ry="1.63"/></g></g></g></g></svg>