<svg id="Layer_1" data-name="Layer 1" xmlns="http://www.w3.org/2000/svg" viewBox="0 0 30 20"><defs><style>.cls-1{fill:#1b2a59;}</style></defs><title>da burg</title><g id="Page-1"><g id="mobile-new-entry"><g id="Group-2"><path id="Rectangle-5" class="cls-1" d="M2,8H28a2,2,0,0,1,2,2h0a2,2,0,0,1-2,2H2a2,2,0,0,1-2-2H0A2,2,0,0,1,2,8Z"/><path id="Rectangle-5-2" data-name="Rectangle-5" class="cls-1" d="M2,16H28a2,2,0,0,1,2,2h0a2,2,0,0,1-2,2H2a2,2,0,0,1-2-2H0A2,2,0,0,1,2,16Z"/><path id="Rectangle-5-3" data-name="Rectangle-5" class="cls-1" d="M2,0H28a2,2,0,0,1,2,2h0a2,2,0,0,1-2,2H2A2,2,0,0,1,0,2H0A2,2,0,0,1,2,0Z"/></g></g></g></svg>