<?xml version="1.0" encoding="utf-8"?>
<!-- Generator: Adobe Illustrator 19.2.0, SVG Export Plug-In . SVG Version: 6.00 Build 0)  -->
<svg version="1.1" id="Layer_1" xmlns="http://www.w3.org/2000/svg" xmlns:xlink="http://www.w3.org/1999/xlink" x="0px" y="0px"
	 viewBox="0 0 27 27" style="enable-background:new 0 0 27 27;" xml:space="preserve">
<style type="text/css">
	.st0{fill:#1B2A59;}
</style>
<title>Combined Shape</title>
<desc>Created with Sketch.</desc>
<path class="st0" d="M13.5,0C6,0,0,6,0,13.5C0,21,6,27,13.5,27S27,21,27,13.5C27,6,21,0,13.5,0z M5.3,9.6c0.5-0.3,1.9,0.4,3.2,0.3
	s2.2-1.1,2.6-0.6s-1,1.7-1.7,2.1S8,11.6,6.8,11.1C5.5,10.6,4.8,9.9,5.3,9.6z M17.8,17.2c-1.7,0.9-3.4,1.1-4.3,1.1s-2.9-0.3-4.9-1.1
	c-2-0.9-2.4-1.6-1.1-1.7c1.3-0.1,2.7,0.9,5.7,0.9c3,0,5.3-0.9,6.4-0.9S19.5,16.4,17.8,17.2z M20.5,11.1c-1.2,0.5-1.8,0.7-2.6,0.3
	c-0.7-0.4-2.1-1.6-1.7-2.1s1.4,0.5,2.6,0.6c1.2,0.1,2.6-0.6,3.2-0.3S21.7,10.6,20.5,11.1z"/>
</svg>
