<svg id="Layer_1" data-name="Layer 1" xmlns="http://www.w3.org/2000/svg" viewBox="0 0 27.95 27.95"><defs><style>.cls-1{fill:#bb57b9;}</style></defs><title>hamburger_pencil icon</title><g id="Page-1"><g id="iPhone-7"><g id="pencil-striped-symbol-for-interface-edit-buttons"><g id="Capa_1" data-name="Capa 1"><path id="Shape" class="cls-1" d="M26.93,8.44L25.7,9.67,18.28,2.26,19.52,1a3.5,3.5,0,0,1,4.94,0L26.93,3.5a3.5,3.5,0,0,1,0,4.94h0ZM9.63,23.26a0.87,0.87,0,0,0,1.24,1.23L24.46,10.91,23.23,9.67,9.63,23.26h0ZM3.46,17.08a0.87,0.87,0,0,0,1.24,1.24L18.28,4.73,17,3.5,3.46,17.08h0ZM19.52,6L5.93,19.56A1.75,1.75,0,1,0,8.4,22L22,8.44,19.52,6h0ZM8.4,25.73a2.55,2.55,0,0,1-.69-1.49,3.53,3.53,0,0,1-.54.05,3.41,3.41,0,0,1-3.44-4,2.59,2.59,0,0,1-1.5-.73s-0.05-.09-0.09-0.13L0,28l8.51-2.13-0.12-.1h0Z" transform="translate(0 0)"/></g></g></g></g></svg>