<svg id="Layer_1" data-name="Layer 1" xmlns="http://www.w3.org/2000/svg" viewBox="0 0 35 25.94"><defs><style>.cls-1{fill:#1b2a59;}</style></defs><title>hamburger_logout icon</title><g id="Page-1"><g id="iPhone-7"><g id="logout-_1_" data-name="logout-(1)"><g id="Layer_1-2" data-name="Layer 1"><g id="_Group_" data-name="&lt;Group&gt;"><path id="_Path_" data-name="&lt;Path&gt;" class="cls-1" d="M5.43,14.59H23.86a1.59,1.59,0,1,0,0-3.17H5.43l2.06-2A1.59,1.59,0,0,0,5.24,7.12L0.47,11.88,0.36,12l0,0-0.07.09,0,0-0.06.1v0l-0.06.12v0l0,0.13v0l0,0.13v0s0,0.07,0,.11a1.56,1.56,0,0,0,0,.32s0,0.08,0,.11v0l0,0.13v0l0,0.13h0l0.06,0.12v0l0.06,0.11,0,0L0.34,14l0,0,0.1,0.12,4.77,4.76a1.59,1.59,0,1,0,2.25-2.24l-2.06-2h0Z" transform="translate(0 -0.03)"/><path id="_Path_2" data-name="&lt;Path&gt;" class="cls-1" d="M22,0A13,13,0,0,0,11.18,5.77a1.59,1.59,0,0,0,2.64,1.77,9.8,9.8,0,1,1,0,10.93,1.59,1.59,0,0,0-2.64,1.77A13,13,0,1,0,22,0h0Z" transform="translate(0 -0.03)"/></g></g></g></g></g></svg>