<svg id="Layer_1" data-name="Layer 1" xmlns="http://www.w3.org/2000/svg" viewBox="0 0 18 31"><defs><style>.cls-1{fill:#1b2a59;}</style></defs><title>question-mark_hamburger</title><g id="Page-1"><g id="mobile-hamburger-open"><g id="question-mark"><g id="Capa_1" data-name="Capa 1"><path id="Shape" class="cls-1" d="M18,7.5c0,5.17-4.5,6.5-6.49,9.46-0.94,1.4-.64,3.34-3.26,3.34-1.71,0-1.76-1-1.76-2.3,0-4.73,7-6.76,7-10.65,0-2.14-2.26-2.82-4.65-2.82-6.35,0-4.08,5.24-7,5.24C0.5,9.77,0,9.15,0,7.5,0,3.58,3.77,0,8.61,0,13.7,0,18,1.9,18,7.5ZM12,28a3,3,0,1,1-3-3A3,3,0,0,1,12,28Z"/></g></g></g></g></svg>