<svg id="Layer_1" data-name="Layer 1" xmlns="http://www.w3.org/2000/svg" xmlns:xlink="http://www.w3.org/1999/xlink" viewBox="0 0 212.36 264"><defs><style>.cls-1,.cls-2,.cls-6{fill:none;}.cls-1{clip-rule:evenodd;}.cls-3{clip-path:url(#clip-path);}.cls-4{clip-path:url(#clip-path-2);}.cls-5{fill:#fff;}.cls-6{stroke:#f0576b;stroke-linecap:square;stroke-miterlimit:10;stroke-width:3px;opacity:0.5;}</style><clipPath id="clip-path" transform="translate(-14.98 -9.69)"><path class="cls-1" d="M151.94,78.66A7.5,7.5,0,1,0,159.17,71,7.48,7.48,0,0,0,151.94,78.66Zm-58,1A7.5,7.5,0,1,0,101.22,72,7.48,7.48,0,0,0,94,79.66Zm-52.31,143a5,5,0,1,0-5-5A5,5,0,0,0,41.68,222.69Zm5-86a5,5,0,1,0-5-5A5,5,0,0,0,46.68,136.69Zm120-33.67c-1.55-1.64-17.5.87-35.26,1.17s-34.12-1.69-35.61,0a4,4,0,0,0,.38,5.74c9.8,8.53,22.18,14.49,35.22,14.26s25.58-6.59,35.07-15.41A4.05,4.05,0,0,0,166.66,103Zm-125-47.33a5,5,0,1,0-5-5A5,5,0,0,0,41.68,55.69Zm-13.5,72.12c0,70.39-8.2,140.88-8.2,140.88s47.46-9.35,100.44-9.35a563.39,563.39,0,0,1,99.26,9.35s6-80,0-140.88c-3-30.39-10-108-10-108H129.52C87.86,19.85,20,14.69,20,14.69S28.18,57.42,28.18,127.81Z"/></clipPath><clipPath id="clip-path-2" transform="translate(-14.98 -9.69)"><rect class="cls-2" x="-981.32" y="-336.31" width="1440" height="1024"/></clipPath></defs><title>happy loose leaf test</title><g class="cls-3"><g class="cls-4"><rect class="cls-5" width="212.36" height="264"/></g></g><g class="cls-4"><path class="cls-6" d="M37.18,264.69l4.5-48.5c1.5-13.5,4.5-52,4.5-82.5,0-17.35-1.71-52.8-4.5-81a313.4,313.4,0,0,0-5.5-36" transform="translate(-14.98 -9.69)"/></g></svg>