<svg id="Layer_1" data-name="Layer 1" xmlns="http://www.w3.org/2000/svg" viewBox="0 0 49.65 49.65"><defs><style>.cls-1{fill:#fff;}</style></defs><title>instagram-logo</title><g id="Page-1"><g id="about"><g id="instagram-logo"><g id="Capa_1" data-name="Capa 1"><g id="Group"><path id="Shape" class="cls-1" d="M24.83,29.8a5,5,0,1,0-5-5,5,5,0,0,0,5,5h0Z"/><polygon id="Shape-2" data-name="Shape" class="cls-1" points="35.68 18.75 35.68 14.58 35.68 13.96 35.05 13.96 30.89 13.97 30.91 18.76 35.68 18.75"/><path id="Shape-3" data-name="Shape" class="cls-1" d="M24.83,0A24.83,24.83,0,1,0,49.65,24.83,24.85,24.85,0,0,0,24.83,0h0ZM38.94,21.93V33.49a5.46,5.46,0,0,1-5.46,5.46H16.16a5.46,5.46,0,0,1-5.46-5.46V16.17a5.46,5.46,0,0,1,5.46-5.46H33.49a5.46,5.46,0,0,1,5.46,5.46v5.76h0Z"/><path id="Shape-4" data-name="Shape" class="cls-1" d="M32.55,24.83a7.72,7.72,0,1,1-14.88-2.9H13.46V33.49a2.71,2.71,0,0,0,2.71,2.7H33.49a2.71,2.71,0,0,0,2.71-2.7V21.93H32a7.62,7.62,0,0,1,.57,2.9h0Z"/></g></g></g></g></g></svg>