<svg id="Layer_1" data-name="Layer 1" xmlns="http://www.w3.org/2000/svg" viewBox="0 0 49 49"><defs><style>.cls-1{fill:#ffd203;}</style></defs><title>joy_icon</title><path class="cls-1" d="M24.5,0A24.5,24.5,0,1,0,49,24.5,24.5,24.5,0,0,0,24.5,0ZM9.64,17.65c0.91-.58,3.53.66,5.75,0.34s3.94-2.09,4.65-1.24-1.66,3.13-3,3.87-2.45.41-4.71-.37S8.73,18.22,9.64,17.65ZM32.32,32.86A14.46,14.46,0,0,1,24.5,36a18.73,18.73,0,0,1-8.86-3.14c-3.65-2.35-4.4-4.49-2.09-4.71s4.85,2.35,10.32,2.35,9.7-2.53,11.57-2.35S35.45,30.51,32.32,32.86Zm4.76-12.62c-2.25.78-3.37,1.12-4.71,0.37s-3.7-3-3-3.87S31.81,17.66,34,18s4.84-.92,5.75-0.34S39.34,19.46,37.08,20.24Z"/></svg>