<svg id="Layer_1" data-name="Layer 1" xmlns="http://www.w3.org/2000/svg" viewBox="0 0 49.65 49.65"><defs><style>.cls-1{fill:#fff;}</style></defs><title>linkedin-logo-button</title><g id="Page-1"><g id="about"><g id="linkedin-logo-button"><g id="Capa_1" data-name="Capa 1"><g id="Group"><path id="Shape" class="cls-1" d="M29.35,21.3a4,4,0,0,0-3.6,2v-1.7h-4c0.05,1.13,0,12,0,12h4V26.9a2.7,2.7,0,0,1,.13-1,2.19,2.19,0,0,1,2.05-1.47c1.45,0,2,1.1,2,2.72v6.44h4v-6.9c0-3.7-2-5.42-4.61-5.42h0Zm-3.61,2h0l0,0v0h0Z"/><rect id="Rectangle-path" class="cls-1" x="15.52" y="21.58" width="4" height="12.04"/><path id="Shape-2" data-name="Shape" class="cls-1" d="M24.83,0A24.83,24.83,0,1,0,49.65,24.83,24.85,24.85,0,0,0,24.83,0h0ZM38,36.06A1.93,1.93,0,0,1,36,38H13.45a1.93,1.93,0,0,1-2-1.91V13.21a1.93,1.93,0,0,1,2-1.91H36a1.94,1.94,0,0,1,2,1.91V36.06h0Z"/><path id="Shape-3" data-name="Shape" class="cls-1" d="M17.55,15.78a2.09,2.09,0,1,0-.05,4.16h0a2.09,2.09,0,1,0,0-4.16h0Z"/></g></g></g></g></g></svg>