<?xml version="1.0" encoding="UTF-8" standalone="no"?>
<svg width="206px" height="254px" viewBox="0 0 206 254" version="1.1" xmlns="http://www.w3.org/2000/svg" xmlns:xlink="http://www.w3.org/1999/xlink">
    <!-- Generator: Sketch 40.3 (33839) - http://www.bohemiancoding.com/sketch -->
    <title>Group 2</title>
    <desc>Created with Sketch.</desc>
    <defs></defs>
    <g id="Page-1" stroke="none" stroke-width="1" fill="none" fill-rule="evenodd">
        <g id="error-state-no-writing" transform="translate(-618.000000, -351.000000)">
            <g id="Group-2" transform="translate(618.000000, 351.000000)">
                <g id="smile" transform="translate(125.000000, 66.000000)">
                    <g id="Capa_1"></g>
                </g>
                <path d="M8.5,113.123933 C8.5,183.517963 0.304411765,254 0.304411765,254 C0.304411765,254 47.769184,244.652284 100.739691,244.652284 C153.710197,244.652284 205.5,254 205.5,254 C205.5,254 199.998529,120.617395 199.998529,112.475559 C199.998529,98.699862 196.041176,5.15736041 196.041176,5.15736041 C196.041176,5.15736041 151.5,5.15736041 109.843196,5.15736041 C68.1863923,5.15736041 0.304411765,0 0.304411765,0 C0.304411765,0 8.5,42.7299043 8.5,113.123933 Z M22,41 C24.7614237,41 27,38.7614237 27,36 C27,33.2385763 24.7614237,31 22,31 C19.2385763,31 17,33.2385763 17,36 C17,38.7614237 19.2385763,41 22,41 Z M145.982012,109.427849 C144.43177,111.064712 128.446975,103.353008 110.687954,103.060697 C92.9289327,102.768387 76.6067403,109.954305 75.1175941,108.261433 C73.6228723,106.571419 73.7961872,103.996209 75.499245,102.517003 C85.2993269,93.9837202 97.8793885,89.4100257 110.922253,89.6376897 C123.915307,89.8699744 136.303956,94.8499373 145.790024,103.673406 C147.443439,105.208666 147.526819,107.785823 145.982012,109.427849 Z M27,122 C29.7614237,122 32,119.761424 32,117 C32,114.238576 29.7614237,112 27,112 C24.2385763,112 22,114.238576 22,117 C22,119.761424 24.2385763,122 27,122 Z M22,208 C24.7614237,208 27,205.761424 27,203 C27,200.238576 24.7614237,198 22,198 C19.2385763,198 17,200.238576 17,203 C17,205.761424 19.2385763,208 22,208 Z M73.3089806,64.9707424 C73.4525258,69.0813402 76.9249523,72.3008014 81.0644755,72.156246 C85.2039986,72.0116907 88.4433882,68.5578478 88.299843,64.4472499 C88.1561225,60.331634 84.6865907,57.1170959 80.5443481,57.2617462 C76.4044364,57.4063151 73.1652601,60.8551264 73.3089806,64.9707424 Z M132.260064,63.9707424 C132.403609,68.0813402 135.876035,71.3008014 140.015559,71.156246 C144.155082,71.0116907 147.394471,67.5578478 147.250926,63.4472499 C147.107206,59.331634 143.634954,56.1171909 139.495431,56.2617462 C135.35552,56.4063151 132.116343,59.8551264 132.260064,63.9707424 Z" id="Combined-Shape" fill="#FFFFFF"></path>
                <path d="M17.5,250 L22,201.5 C23.5,188 26.5,149.5 26.5,119 C26.5,101.647282 24.790625,66.2004259 22,38 C19.8856838,16.6339562 16.5,2 16.5,2" id="Line" stroke="#FD5469" stroke-width="3" stroke-linecap="square" opacity="0.5"></path>
            </g>
        </g>
    </g>
</svg>