<svg id="Layer_1" data-name="Layer 1" xmlns="http://www.w3.org/2000/svg" viewBox="0 0 67.07 32.4"><defs><style>.cls-1{fill:#ed8a19;}.cls-2{fill:#e0e1e2;}.cls-3{fill:#d75a4a;}.cls-4{fill:#db7b1b;}.cls-5{fill:#c4c4c4;}.cls-6{fill:#b74c44;}.cls-7{fill:#ebd6bd;}.cls-8{fill:#4c4c4c;}</style></defs><title>pencil</title><g id="Page-1"><g id="Artboard"><g id="pencil"><path id="Shape" class="cls-1" d="M2.51,31.35a4.43,4.43,0,0,0,.46.83,4.43,4.43,0,0,1-.46-0.83h0Z" transform="translate(-0.38 -0.44)"/><rect id="Rectangle-path" class="cls-2" x="10.12" y="24.63" width="4.85" height="4.89" transform="matrix(0.92, -0.39, 0.39, 0.92, -9.97, 6.61)"/><path id="Shape-2" data-name="Shape" class="cls-3" d="M3.42,32.44a2.4,2.4,0,0,0,2.25.21h0a2.4,2.4,0,0,1-2.25-.21h0Z" transform="translate(-0.38 -0.44)"/><path id="Shape-3" data-name="Shape" class="cls-3" d="M1.55,29.08l1,2.27a2.46,2.46,0,0,0,.54.8,2.32,2.32,0,0,0,.37.29,2.4,2.4,0,0,0,2.25.21l5.59-2.37-1.91-4.5L1.55,29.08h0Z" transform="translate(-0.38 -0.44)"/><rect id="Rectangle-path-2" data-name="Rectangle-path" class="cls-4" x="11.04" y="10.2" width="46.03" height="4.89" transform="translate(-2.62 13.87) rotate(-23)"/><rect id="Rectangle-path-3" data-name="Rectangle-path" class="cls-5" x="8.2" y="20.13" width="4.85" height="4.89" transform="translate(-8.36 5.51) rotate(-23)"/><path id="Shape-4" data-name="Shape" class="cls-6" d="M7.44,21.26L1.84,23.64A2.4,2.4,0,0,0,.43,25.4a2.43,2.43,0,0,0,.15,1.41l1,2.27,7.81-3.31-1.91-4.5h0Z" transform="translate(-0.38 -0.44)"/><polygon id="Shape-5" data-name="Shape" class="cls-7" points="53.91 0.97 57.73 9.98 63.63 2.17 53.91 0.97"/><path id="Shape-6" data-name="Shape" class="cls-8" d="M66.72,2.79a1.22,1.22,0,0,0-1-2.25L61.3,2.43l1,2.25,4.46-1.89h0Z" transform="translate(-0.38 -0.44)"/><rect id="Rectangle-path-4" data-name="Rectangle-path" class="cls-1" x="12.95" y="14.7" width="46.03" height="4.89" transform="translate(-4.23 14.98) rotate(-23)"/></g></g></g></svg>