<svg id="Layer_1" data-name="Layer 1" xmlns="http://www.w3.org/2000/svg" viewBox="0 0 49 49"><defs><style>.cls-1{fill:#4496cb;}</style></defs><title>Sadness_icon</title><g id="Page-1"><g id="Mood-Word-Analysis"><path class="cls-1" d="M24.5,0A24.5,24.5,0,1,0,49,24.5,24.5,24.5,0,0,0,24.5,0ZM11.95,17.15c-0.32-2,1.81-3.84,3.8-4.16s3.1,1,3.41,3,0.41,2.57-3.2,3.15S12.26,19.14,11.95,17.15Zm23,15.17c-2.32.14-4.43-2.09-9.9-2.09s-9.08,2.2-10.95,2.09-0.82-2.61,2.31-4.17A23.94,23.94,0,0,1,24,26.06a16.23,16.23,0,0,1,9.38,2.09C37.53,30.76,37.24,32.17,34.93,32.32Zm2.84-15.17c-0.32,2-.41,2.57-4,2S30.24,18,30.55,16,32,12.67,34,13,38.08,15.16,37.76,17.15Z"/></g></g></svg>