<svg id="Layer_1" data-name="Layer 1" xmlns="http://www.w3.org/2000/svg" viewBox="0 0 293.61 279.33"><defs><style>.cls-1,.cls-2{fill:#7367d7;}.cls-1{fill-opacity:0.55;}</style></defs><title>splash_mirror icon</title><g id="Page-1"><g id="learn-about-yourself-icon"><g id="noun_59941_cc" data-name="noun 59941 cc"><g id="Group"><path id="Shape" class="cls-1" d="M208.44,227.06c-27.21,27.11-37,52.53-37,52.53H293.61V10.65a71.85,71.85,0,0,0-9.78-.74c-32.44,0-62.35,24.39-68.56,51.24-1.38,6-2.94,21.56-2.94,21.56L194.1,120.35a5.55,5.55,0,0,0-.44,2.24,5.76,5.76,0,0,0,5.75,5.77h12.92v20a28.19,28.19,0,0,0,28.17,28.24h11.2v19.69c-13.24,6.79-29.26,16.83-43.27,30.78h0Z" transform="translate(0 -0.26)"/><ellipse id="Oval" class="cls-2" cx="104.97" cy="86.1" rx="7.81" ry="7.82"/><path id="Shape-2" data-name="Shape" class="cls-2" d="M55.95,115.6a15.19,15.19,0,0,1-8.5-2.71,19.32,19.32,0,0,1-7.63-10.76c-1.65-5.77-1.37-10.88.83-14.78A14.51,14.51,0,0,1,50,80.55c6.7-1.81,13.63,2.6,15.77,10.05a3.66,3.66,0,1,1-7,2c-1-3.5-4.08-5.75-6.83-5A7.4,7.4,0,0,0,47,91c-1.19,2.11-1.25,5.36-.17,9.16a12,12,0,0,0,4.68,6.7,7.44,7.44,0,0,0,6.25,1.2,3.66,3.66,0,0,1,2,7,14,14,0,0,1-3.85.54h0Z" transform="translate(0 -0.26)"/><path id="Shape-3" data-name="Shape" class="cls-2" d="M174.82,103C174.82,46.37,135.61.26,87.41,0.26S0,46.37,0,103c0,54.5,36.27,99.2,81.91,102.56v50.64c-19.65,2.21-34.84,11.65-37.08,23.35H136.7c-2.23-11.7-17.43-21.14-37.08-23.35V204.8c42.43-7,75.19-50,75.19-101.76h0ZM20.17,103C20.17,59.31,48,23.44,83,20.65c19.86,7.2,35.82,23.83,40,41.7,1.23,5.29,2.6,19.13,2.6,19.13l18.83,33.4a5,5,0,0,1,.39,2A5.11,5.11,0,0,1,139.7,122H125.58v17.73c0,13.84-11.17,23.24-25,23.24H90.65v22.58c-1.08.06-2.16,0.1-3.24,0.1-37.08,0-67.24-37-67.24-82.59h0Z" transform="translate(0 -0.26)"/></g></g></g></g></svg>