<svg id="Layer_1" data-name="Layer 1" xmlns="http://www.w3.org/2000/svg" viewBox="0 0 444.78 295.6"><defs><style>.cls-1{fill:#464655;}.cls-2{fill:#707384;}.cls-3{fill:#b9ebff;}.cls-4{fill:#98d2eb;}.cls-10,.cls-4{fill-opacity:0.5;}.cls-5{fill:#fff;}.cls-6{fill:#5b5c6c;}.cls-7{fill:#7367d7;}.cls-8{fill:#0076ff;fill-opacity:0.3;}.cls-10,.cls-8{opacity:0.5;isolation:isolate;}.cls-9{fill:#f6a623;}.cls-10{fill:#8b3cff;}</style></defs><title>splash_analysis icon</title><g id="Page-1"><g id="graph-icon-v2"><g id="Group-2"><g id="loupe"><g id="Layer_1-2" data-name="Layer 1"><path id="Shape" class="cls-1" d="M350.45,194.72q-1.51,1.73-3.16,3.38t-3.38,3.16l13.19,13.19,6.54-6.54-13.19-13.19h0Z" transform="translate(0 0.01)"/><path id="Shape-2" data-name="Shape" class="cls-2" d="M350.45,194.72a69.33,69.33,0,1,0-6.54,6.54q1.73-1.51,3.38-3.16t3.16-3.38h0ZM278.71,201l-0.21-.08a55,55,0,0,1-6.74-3.1l-1.23-.69a55.23,55.23,0,0,1-6.29-4.24q-1-.77-2-1.6l-1.16-1q-1.05-1-2.07-2l-1-1a55.47,55.47,0,0,1,0-76.39l1-1a55.47,55.47,0,0,1,78.44,78.44l-1,1a55.75,55.75,0,0,1-5.4,4.52q-1,.75-2.06,1.44l-0.47.31q-0.89.58-1.8,1.12-1.61,1-3.26,1.8a55,55,0,0,1-5,2.26l-1.14.43q-1.54.56-3.1,1l-0.41.12q-1,.28-1.91.52l-0.92.22q-1.44.34-2.9,0.6l-0.86.15A55.69,55.69,0,0,1,278.71,201h0Z" transform="translate(0 0.01)"/><g id="Group"><path id="Shape-3" data-name="Shape" class="cls-3" d="M328.57,195.59q-0.9.57-1.83,1.09,0.92-.53,1.83-1.09h0Z" transform="translate(0 0.01)"/><path id="Shape-4" data-name="Shape" class="cls-3" d="M317.29,201.18q-1.54.56-3.1,1,1.56-.47,3.1-1h0Z" transform="translate(0 0.01)"/><path id="Shape-5" data-name="Shape" class="cls-3" d="M323.48,198.49a55,55,0,0,1-5,2.26,55,55,0,0,0,5-2.26h0Z" transform="translate(0 0.01)"/><path id="Shape-6" data-name="Shape" class="cls-3" d="M331.09,193.84q-1,.73-2.08,1.41c0.7-.45,1.4-0.92,2.08-1.41h0Z" transform="translate(0 0.01)"/><path id="Shape-7" data-name="Shape" class="cls-3" d="M262.28,191.27q-0.59-.5-1.16-1,0.58,0.52,1.16,1h0Z" transform="translate(0 0.01)"/><path id="Shape-8" data-name="Shape" class="cls-3" d="M313.79,202.33q-1,.28-1.91.52,1-.24,1.91-0.52h0Z" transform="translate(0 0.01)"/><path id="Shape-9" data-name="Shape" class="cls-3" d="M278.71,201a55.69,55.69,0,0,0,28.49,2.83A55.69,55.69,0,0,1,278.71,201h0Z" transform="translate(0 0.01)"/><path id="Shape-10" data-name="Shape" class="cls-3" d="M311,203.07q-1.44.34-2.9,0.6,1.46-.26,2.9-0.6h0Z" transform="translate(0 0.01)"/><path id="Shape-11" data-name="Shape" class="cls-3" d="M270.53,197.11a55.23,55.23,0,0,1-6.29-4.24,55.29,55.29,0,0,0,6.29,4.24h0Z" transform="translate(0 0.01)"/><path id="Shape-12" data-name="Shape" class="cls-3" d="M278.5,200.91a55,55,0,0,1-6.74-3.1,55.12,55.12,0,0,0,6.74,3.1h0Z" transform="translate(0 0.01)"/></g><path id="Shape-13" data-name="Shape" class="cls-4" d="M311,203.07l0.92-.22q1-.24,1.91-0.52l0.41-.12q1.56-.47,3.1-1l1.14-.43a55,55,0,0,0,5-2.26q1.65-.84,3.26-1.8,0.91-.54,1.8-1.12l0.47-.31q1-.69,2.06-1.44a55.85,55.85,0,0,0,5.4-4.52l1-1a55.61,55.61,0,0,0,5.95-7.12,55.4,55.4,0,0,1-77.27-77.27,55.61,55.61,0,0,0-7.12,5.95l-1,1a55.47,55.47,0,0,0,0,76.39l1,1q1,1,2.07,2l1.16,1q1,0.82,2,1.6a55.2,55.2,0,0,0,6.29,4.24l1.23,0.69a55.12,55.12,0,0,0,6.74,3.1l0.21,0.08a55.69,55.69,0,0,0,28.49,2.83l0.86-.15q1.46-.26,2.9-0.6h0Z" transform="translate(0 0.01)"/><circle id="Oval" class="cls-5" cx="295" cy="122.92" r="16.18" transform="translate(-0.52 244.61) rotate(-45)"/><g id="Group-2-2" data-name="Group"><path id="Shape-14" data-name="Shape" class="cls-2" d="M423.93,294.05a8.58,8.58,0,0,1-1.46-1.17,8.58,8.58,0,0,0,1.46,1.17h0Z" transform="translate(0 0.01)"/><path id="Shape-15" data-name="Shape" class="cls-2" d="M355.68,225.66c-0.1-.18-0.2-0.37-0.29-0.55,0.09,0.19.19,0.37,0.29,0.55h0Z" transform="translate(0 0.01)"/><path id="Shape-16" data-name="Shape" class="cls-2" d="M435.56,292.89a8.59,8.59,0,0,1-1.46,1.17,8.59,8.59,0,0,0,1.46-1.17h0Z" transform="translate(0 0.01)"/><path id="Shape-17" data-name="Shape" class="cls-2" d="M355.33,217a8.5,8.5,0,0,1,.58-1.11,8.61,8.61,0,0,0-.58,1.11h0Z" transform="translate(0 0.01)"/><path id="Shape-18" data-name="Shape" class="cls-2" d="M423.92,294.07a9.25,9.25,0,0,0,10.17,0,9.25,9.25,0,0,1-10.17,0h0Z" transform="translate(0 0.01)"/><path id="Shape-19" data-name="Shape" class="cls-2" d="M366.91,217.71l65.37,65.37a9.22,9.22,0,0,0,11.21,1.4,10.08,10.08,0,0,1-.94,1.35,9.24,9.24,0,0,0-.46-12.56L376.71,207.9a9.24,9.24,0,0,0-12.56-.46,10.14,10.14,0,0,1,1.35-.94,9.22,9.22,0,0,0,1.4,11.21h0Z" transform="translate(0 0.01)"/><path id="Shape-20" data-name="Shape" class="cls-2" d="M355.93,215.9a8.58,8.58,0,0,1,1.17-1.46,8.59,8.59,0,0,0-1.17,1.46h0Z" transform="translate(0 0.01)"/></g><path id="Shape-21" data-name="Shape" class="cls-6" d="M357.1,214.44a9.28,9.28,0,0,0-1.72,10.67c0.09,0.18.2,0.36,0.3,0.54a9.24,9.24,0,0,0,1.42,1.86l65.37,65.37a9.24,9.24,0,0,0,13.07,0l6.54-6.54c0.16-.16.32-0.34,0.46-0.51a10.16,10.16,0,0,0,.94-1.35,9.22,9.22,0,0,1-11.21-1.4l-65.37-65.37a9.22,9.22,0,0,1-1.4-11.21,10.08,10.08,0,0,0-1.35.94c-0.18.15-.35,0.3-0.51,0.46l-6.54,6.54h0Z" transform="translate(0 0.01)"/></g></g><g id="data-analysis-symbol"><g id="Capa_1" data-name="Capa 1"><g id="Group-3" data-name="Group"><path id="Shape-22" data-name="Shape" class="cls-7" d="M318.63,104.73L306.4,124.34a19.13,19.13,0,0,0-13-.78l-12-21.55a42.85,42.85,0,0,0-9.18,5l12.4,22.17a19,19,0,0,0-4.92,12.74,19.19,19.19,0,0,0,38.37,0,19,19,0,0,0-3.44-10.9L327,111a43.24,43.24,0,0,0-8.37-6.31h0Zm-19.82,49.44a12.28,12.28,0,1,1,12.32-12.28,12.31,12.31,0,0,1-12.32,12.28h0Z" transform="translate(0 0.01)"/><path id="Shape-23" data-name="Shape" class="cls-7" d="M341,88.3L373,37a19,19,0,1,0-8.75-5.44L332.57,82.4A69.78,69.78,0,0,1,341,88.3h0ZM378.26,6.75A12.12,12.12,0,1,1,366.1,18.87,12.15,12.15,0,0,1,378.26,6.75h0Z" transform="translate(0 0.01)"/><path id="Shape-24" data-name="Shape" class="cls-7" d="M237,60.82a18.5,18.5,0,0,0,8.64-.34l13.11,23.44a69.18,69.18,0,0,1,9-5L254.44,55.14a18.94,18.94,0,1,0-26.66,1l-42.59,88.55a18.89,18.89,0,0,0-5.34-.78,18.67,18.67,0,0,0-5.15.73L136.5,74.29a18.93,18.93,0,1,0-32.86-6.09l-72,44.69a18.86,18.86,0,1,0,5.47,8.72l72.19-44.82A18.8,18.8,0,0,0,128,80.3l37.87,69.78a18.74,18.74,0,0,0-5,12.74A18.94,18.94,0,1,0,194,150.27l43-89.44h0Zm3.61-30.65a12.12,12.12,0,1,1-12.16,12.12,12.15,12.15,0,0,1,12.16-12.12h0ZM18.94,139a12.12,12.12,0,1,1,12.16-12.12A12.16,12.16,0,0,1,18.94,139h0ZM121.7,74.66a12.12,12.12,0,1,1,12.16-12.12A12.15,12.15,0,0,1,121.7,74.66h0ZM179.85,175A12.12,12.12,0,1,1,192,162.82,12.16,12.16,0,0,1,179.85,175h0Z" transform="translate(0 0.01)"/></g></g></g><circle id="Oval-6" class="cls-8" cx="18.5" cy="126.51" r="12.5"/><circle id="Oval-6-2" data-name="Oval-6" class="cls-8" cx="179.5" cy="162.51" r="12.5"/><circle id="Oval-6-3" data-name="Oval-6" class="cls-8" cx="378.5" cy="18.51" r="12.5"/><circle id="Oval-6-4" data-name="Oval-6" class="cls-9" cx="298.8" cy="142.01" r="12.5"/><circle id="Oval-6-5" data-name="Oval-6" class="cls-10" cx="121.5" cy="62.51" r="12.5"/><circle id="Oval-6-6" data-name="Oval-6" class="cls-10" cx="240.5" cy="42.51" r="12.5"/></g></g></g></svg>