<svg id="Layer_1" data-name="Layer 1" xmlns="http://www.w3.org/2000/svg" viewBox="0 0 139.2 134.34"><defs><style>.cls-1{fill:#b0dae4;}.cls-2{fill:#594e81;}.cls-3{fill:#5a749c;}.cls-4{fill:#ebba16;}.cls-5{fill:#ed8a19;}.cls-6{fill:#e0e1e2;}.cls-7{fill:#d75a4a;}.cls-8{fill:#db7b1b;}.cls-9{fill:#c4c4c4;}.cls-10{fill:#b74c44;}.cls-11{fill:#ebd6bd;}.cls-12{fill:#4c4c4c;}</style></defs><title>tutorial 1_icon</title><g id="Page-1"><g id="Tutorial-1"><g id="Group-3"><g id="notebook-_2_" data-name="notebook-(2)"><g id="Capa_1" data-name="Capa 1"><path id="Shape" class="cls-1" d="M89.08,122.56H0.16V0H89.08a7,7,0,0,1,7,7.06V115.5a7,7,0,0,1-7,7.06h0Z" transform="translate(-0.16 -0.01)"/><rect id="Rectangle-path" class="cls-2" x="70.2" width="11.7" height="122.55"/><g id="Group"><rect id="Rectangle-path-2" data-name="Rectangle-path" class="cls-3" y="40.08" width="70.2" height="42.43"/><rect id="Rectangle-path-3" data-name="Rectangle-path" class="cls-3" x="81.9" y="40.08" width="14.04" height="42.43"/></g><polygon id="Shape-2" data-name="Shape" class="cls-4" points="23.4 134.34 16.38 129.63 9.36 134.34 9.36 122.55 23.4 122.55 23.4 134.34"/></g></g><g id="Group-2"><path id="Shape-3" data-name="Shape" class="cls-5" d="M128.23,13.34a6.89,6.89,0,0,0-1.48,0,6.89,6.89,0,0,1,1.48,0h0Z" transform="translate(-0.16 -0.01)"/><rect id="Rectangle-path-4" data-name="Rectangle-path" class="cls-6" x="122.98" y="26.53" width="7.58" height="7.64" transform="translate(85.34 153.99) rotate(-85)"/><path id="Shape-4" data-name="Shape" class="cls-7" d="M126.07,13.8a3.75,3.75,0,0,0-1.94,3h0a3.75,3.75,0,0,1,1.94-3h0Z" transform="translate(-0.16 -0.01)"/><path id="Shape-5" data-name="Shape" class="cls-7" d="M132.06,13.68l-3.83-.34a3.82,3.82,0,0,0-1.5.17,3.61,3.61,0,0,0-.67.29,3.75,3.75,0,0,0-1.94,3l-0.83,9.47,7.61,0.67,1.16-13.22h0Z" transform="translate(-0.16 -0.01)"/><rect id="Rectangle-path-5" data-name="Rectangle-path" class="cls-8" x="94.9" y="66.86" width="72.05" height="7.64" transform="translate(48.94 194.93) rotate(-85)"/><rect id="Rectangle-path-6" data-name="Rectangle-path" class="cls-9" x="130.59" y="27.19" width="7.58" height="7.64" transform="translate(91.62 162.17) rotate(-85)"/><path id="Shape-6" data-name="Shape" class="cls-10" d="M138.52,27.57l0.83-9.47A3.75,3.75,0,0,0,138,14.84,3.79,3.79,0,0,0,135.9,14l-3.83-.34L130.91,26.9l7.61,0.67h0Z" transform="translate(-0.16 -0.01)"/><polygon id="Shape-7" data-name="Shape" class="cls-11" points="131.43 106.88 116.21 105.55 122.66 119.44 131.43 106.88"/><path id="Shape-8" data-name="Shape" class="cls-12" d="M120.59,123.06a1.91,1.91,0,0,0,3.8.33l0.66-7.55-3.8-.33-0.66,7.55h0Z" transform="translate(-0.16 -0.01)"/><rect id="Rectangle-path-7" data-name="Rectangle-path" class="cls-5" x="87.29" y="66.19" width="72.05" height="7.64" transform="translate(42.66 186.74) rotate(-85)"/></g></g></g></g></svg>