<svg id="Layer_1" data-name="Layer 1" xmlns="http://www.w3.org/2000/svg" xmlns:xlink="http://www.w3.org/1999/xlink" viewBox="0 0 278.98 326.07"><defs><style>.cls-1{filter:url(#filter-1);}.cls-2{fill:#fff;}.cls-3{fill:#d8d8d8;}.cls-4{filter:url(#filter-2);}.cls-5{filter:url(#filter-3);}.cls-6{filter:url(#filter-4);}.cls-7{filter:url(#filter-5);}.cls-8{filter:url(#filter-6);}.cls-9{filter:url(#filter-8);}</style><filter id="filter-1" x="-52.53" y="-50" width="200" height="200" name="filter-1"><feOffset result="shadowOffsetOuter1" dy="2" in="SourceAlpha"/><feGaussianBlur result="shadowBlurOuter1" stdDeviation="2" in="shadowOffsetOuter1"/><feColorMatrix result="shadowMatrixOuter1" values="0 0 0 0 0.75 0 0 0 0 0.75 0 0 0 0 0.75 0 0 0 0.5 0" in="shadowBlurOuter1"/><feMerge><feMergeNode in="shadowMatrixOuter1"/><feMergeNode in="SourceGraphic"/></feMerge></filter><filter id="filter-2" x="-52.53" y="-50" width="200" height="200" name="filter-2"><feOffset result="shadowOffsetOuter1" dy="2" in="SourceAlpha"/><feGaussianBlur result="shadowBlurOuter1" stdDeviation="2" in="shadowOffsetOuter1"/><feColorMatrix result="shadowMatrixOuter1" values="0 0 0 0 0.75 0 0 0 0 0.75 0 0 0 0 0.75 0 0 0 0.5 0" in="shadowBlurOuter1"/><feMerge><feMergeNode in="shadowMatrixOuter1"/><feMergeNode in="SourceGraphic"/></feMerge></filter><filter id="filter-3" x="-52.53" y="-50" width="200" height="200" name="filter-3"><feOffset result="shadowOffsetOuter1" dy="2" in="SourceAlpha"/><feGaussianBlur result="shadowBlurOuter1" stdDeviation="2" in="shadowOffsetOuter1"/><feColorMatrix result="shadowMatrixOuter1" values="0 0 0 0 0.75 0 0 0 0 0.75 0 0 0 0 0.75 0 0 0 0.5 0" in="shadowBlurOuter1"/><feMerge><feMergeNode in="shadowMatrixOuter1"/><feMergeNode in="SourceGraphic"/></feMerge></filter><filter id="filter-4" x="-52.53" y="-50" width="200" height="200" name="filter-4"><feOffset result="shadowOffsetOuter1" dy="2" in="SourceAlpha"/><feGaussianBlur result="shadowBlurOuter1" stdDeviation="2" in="shadowOffsetOuter1"/><feColorMatrix result="shadowMatrixOuter1" values="0 0 0 0 0.75 0 0 0 0 0.75 0 0 0 0 0.75 0 0 0 0.5 0" in="shadowBlurOuter1"/><feMerge><feMergeNode in="shadowMatrixOuter1"/><feMergeNode in="SourceGraphic"/></feMerge></filter><filter id="filter-5" x="-52.53" y="-50" width="200" height="200" name="filter-5"><feOffset result="shadowOffsetOuter1" dy="2" in="SourceAlpha"/><feGaussianBlur result="shadowBlurOuter1" stdDeviation="2" in="shadowOffsetOuter1"/><feColorMatrix result="shadowMatrixOuter1" values="0 0 0 0 0.75 0 0 0 0 0.75 0 0 0 0 0.75 0 0 0 0.5 0" in="shadowBlurOuter1"/><feMerge><feMergeNode in="shadowMatrixOuter1"/><feMergeNode in="SourceGraphic"/></feMerge></filter><filter id="filter-6" x="-52.53" y="-50" width="200" height="200" name="filter-6"><feOffset result="shadowOffsetOuter1" dy="2" in="SourceAlpha"/><feGaussianBlur result="shadowBlurOuter1" stdDeviation="2" in="shadowOffsetOuter1"/><feColorMatrix result="shadowMatrixOuter1" values="0 0 0 0 0.75 0 0 0 0 0.75 0 0 0 0 0.75 0 0 0 0.5 0" in="shadowBlurOuter1"/><feMerge><feMergeNode in="shadowMatrixOuter1"/><feMergeNode in="SourceGraphic"/></feMerge></filter><filter id="filter-8" x="-52.53" y="-50" width="200" height="200" name="filter-8"><feOffset result="shadowOffsetOuter1" dy="2" in="SourceAlpha"/><feGaussianBlur result="shadowBlurOuter1" stdDeviation="2" in="shadowOffsetOuter1"/><feColorMatrix values="0 0 0 0 0.75 0 0 0 0 0.75 0 0 0 0 0.75 0 0 0 0.5 0" in="shadowBlurOuter1"/></filter></defs><title>tutorial icon_4</title><g id="Page-1"><g id="Tutorial-4"><g id="Group"><g id="Group-4"><g class="cls-1"><polygon id="Rectangle-15" class="cls-2" points="209.02 76.88 262.12 82.66 235.44 182.2 186.59 160.59 209.02 76.88"/></g><path id="Rectangle-17" class="cls-3" d="M213,97.36l38,6.71a1,1,0,0,1,.78,1.11h0a1,1,0,0,1-1.11.78l-38-6.71a1,1,0,0,1-.78-1.11h0A1,1,0,0,1,213,97.36Z" transform="translate(-2.53)"/><path id="Rectangle-17-2" data-name="Rectangle-17" class="cls-3" d="M209.84,108.56l37.77,8a1,1,0,0,1,.74,1.14h0a1,1,0,0,1-1.14.74l-37.77-8a1,1,0,0,1-.74-1.14h0A1,1,0,0,1,209.84,108.56Z" transform="translate(-2.53)"/><path id="Rectangle-17-3" data-name="Rectangle-17" class="cls-3" d="M207.31,119.43l21.74,5.42a1,1,0,0,1,.7,1.16h0a1,1,0,0,1-1.16.7l-21.74-5.42a1,1,0,0,1-.7-1.16h0A1,1,0,0,1,207.31,119.43Z" transform="translate(-2.53)"/><path id="Rectangle-17-4" data-name="Rectangle-17" class="cls-3" d="M235.45,126.26l6,1.5a1,1,0,0,1,.7,1.16h0a1,1,0,0,1-1.16.7l-6-1.5a1,1,0,0,1-.7-1.16h0A1,1,0,0,1,235.45,126.26Z" transform="translate(-2.53)"/><path id="Rectangle-17-5" data-name="Rectangle-17" class="cls-3" d="M215.83,87.15L250.05,92a1,1,0,0,1,.81,1.08h0a1,1,0,0,1-1.08.81L215.56,89a1,1,0,0,1-.81-1.08h0A1,1,0,0,1,215.83,87.15Z" transform="translate(-2.53)"/><rect id="Rectangle-17-6" data-name="Rectangle-17" class="cls-3" x="215.88" y="139.05" width="1.91" height="40.53" rx="0.96" ry="0.96" transform="translate(-9.56 308.58) rotate(-70)"/><rect id="Rectangle-17-7" data-name="Rectangle-17" class="cls-3" x="218.94" y="128.06" width="1.91" height="40.53" rx="0.96" ry="0.96" transform="translate(8.35 311.63) rotate(-72)"/><rect id="Rectangle-17-8" data-name="Rectangle-17" class="cls-3" x="221.32" y="117.36" width="1.91" height="39.72" rx="0.96" ry="0.96" transform="translate(26.57 313.06) rotate(-74)"/></g><g id="Group-4-2" data-name="Group-4"><g class="cls-4"><polygon id="Rectangle-15-2" data-name="Rectangle-15" class="cls-2" points="227.69 167.85 278.98 182.76 235.43 276.16 191.07 246.39 227.69 167.85"/></g><path id="Rectangle-17-9" data-name="Rectangle-17" class="cls-3" d="M228.1,188.27l36.29,13.21a1,1,0,0,1,.57,1.23h0a1,1,0,0,1-1.23.57l-36.29-13.21a1,1,0,0,1-.57-1.23h0A1,1,0,0,1,228.1,188.27Z" transform="translate(-2.53)"/><path id="Rectangle-17-10" data-name="Rectangle-17" class="cls-3" d="M223,198.76l35.8,14.47a1,1,0,0,1,.53,1.25h0a1,1,0,0,1-1.25.53l-35.8-14.47a1,1,0,0,1-.53-1.25h0A1,1,0,0,1,223,198.76Z" transform="translate(-2.53)"/><path id="Rectangle-17-11" data-name="Rectangle-17" class="cls-3" d="M218.67,209l20.47,9.11a1,1,0,0,1,.49,1.26h0a1,1,0,0,1-1.26.49l-20.47-9.11a1,1,0,0,1-.49-1.26h0A1,1,0,0,1,218.67,209Z" transform="translate(-2.53)"/><path id="Rectangle-17-12" data-name="Rectangle-17" class="cls-3" d="M245.18,220.63l5.66,2.52a1,1,0,0,1,.49,1.26h0a1,1,0,0,1-1.26.49l-5.66-2.52a1,1,0,0,1-.49-1.26h0A1,1,0,0,1,245.18,220.63Z" transform="translate(-2.53)"/><path id="Rectangle-17-13" data-name="Rectangle-17" class="cls-3" d="M231.45,179.32a1,1,0,0,1,1.21-.61l32.87,10.68a1,1,0,0,1,.61,1.21h0a1,1,0,0,1-1.21.61l-4.35-1.41-28.51-9.26a1,1,0,0,1-.62-1.21h0Z" transform="translate(-2.53)"/><rect id="Rectangle-17-14" data-name="Rectangle-17" class="cls-3" x="220.16" y="229.68" width="1.91" height="40.53" rx="0.96" ry="0.96" transform="translate(-108.43 316.47) rotate(-60)"/><rect id="Rectangle-17-15" data-name="Rectangle-17" class="cls-3" x="225.08" y="219.4" width="1.91" height="40.53" rx="0.96" ry="0.96" transform="translate(-94.22 326.73) rotate(-62)"/><rect id="Rectangle-17-16" data-name="Rectangle-17" class="cls-3" x="229.35" y="209.28" width="1.91" height="39.72" rx="0.96" ry="0.96" transform="translate(-79.13 335.69) rotate(-64)"/></g><g id="Group-4-3" data-name="Group-4"><g class="cls-5"><polygon id="Rectangle-15-3" data-name="Rectangle-15" class="cls-2" points="205.53 35.72 152.43 41.49 179.1 141.03 227.96 119.42 205.53 35.72"/></g><path id="Rectangle-17-17" data-name="Rectangle-17" class="cls-3" d="M206.59,56.19l-38,6.71a1,1,0,0,0-.78,1.11h0a1,1,0,0,0,1.11.78l38-6.71A1,1,0,0,0,207.7,57h0A1,1,0,0,0,206.59,56.19Z" transform="translate(-2.53)"/><path id="Rectangle-17-18" data-name="Rectangle-17" class="cls-3" d="M209.76,67.39l-37.77,8a1,1,0,0,0-.74,1.14h0a1,1,0,0,0,1.14.74l37.77-8a1,1,0,0,0,.74-1.14h0A1,1,0,0,0,209.76,67.39Z" transform="translate(-2.53)"/><path id="Rectangle-17-19" data-name="Rectangle-17" class="cls-3" d="M212.28,78.26l-21.74,5.42a1,1,0,0,0-.7,1.16h0a1,1,0,0,0,1.16.7l21.74-5.42a1,1,0,0,0,.7-1.16h0A1,1,0,0,0,212.28,78.26Z" transform="translate(-2.53)"/><path id="Rectangle-17-20" data-name="Rectangle-17" class="cls-3" d="M184.15,85.09l-6,1.5a1,1,0,0,0-.7,1.16h0a1,1,0,0,0,1.16.7l6-1.5a1,1,0,0,0,.7-1.16h0A1,1,0,0,0,184.15,85.09Z" transform="translate(-2.53)"/><path id="Rectangle-17-21" data-name="Rectangle-17" class="cls-3" d="M203.77,46l-34.23,4.81a1,1,0,0,0-.81,1.08h0a1,1,0,0,0,1.08.81L204,47.88a1,1,0,0,0,.81-1.08h0A1,1,0,0,0,203.77,46Z" transform="translate(-2.53)"/><rect id="Rectangle-17-22" data-name="Rectangle-17" class="cls-3" x="182.5" y="117.19" width="40.53" height="1.91" rx="0.96" ry="0.96" transform="translate(-30.71 76.47) rotate(-20)"/><rect id="Rectangle-17-23" data-name="Rectangle-17" class="cls-3" x="179.44" y="106.2" width="40.53" height="1.91" rx="0.96" ry="0.96" transform="translate(-25.87 66.96) rotate(-18)"/><rect id="Rectangle-17-24" data-name="Rectangle-17" class="cls-3" x="177.46" y="95.1" width="39.72" height="1.91" rx="0.96" ry="0.96" transform="matrix(0.96, -0.28, 0.28, 0.96, -21.36, 58.11)"/></g><g id="Group-4-4" data-name="Group-4"><g class="cls-6"><polygon id="Rectangle-15-4" data-name="Rectangle-15" class="cls-2" points="132.01 164.9 97.78 203.98 33.44 127.3 77.91 100.42 132.01 164.9"/></g><path id="Rectangle-17-25" data-name="Rectangle-17" class="cls-3" d="M117.4,154.68L90.87,181.21a1,1,0,0,1-1.35,0h0a1,1,0,0,1,0-1.35L116,153.33a1,1,0,0,1,1.35,0h0A1,1,0,0,1,117.4,154.68Z" transform="translate(-2.53)"/><path id="Rectangle-17-26" data-name="Rectangle-17" class="cls-3" d="M110.25,145.92L82.82,171.5a1,1,0,0,1-1.35,0h0a1,1,0,0,1,0-1.35l27.43-25.58a1,1,0,0,1,1.35,0h0A1,1,0,0,1,110.25,145.92Z" transform="translate(-2.53)"/><path id="Rectangle-17-27" data-name="Rectangle-17" class="cls-3" d="M103,137.86L86.61,152.12a1,1,0,0,1-1.35-.09h0a1,1,0,0,1,.09-1.35l16.41-14.26a1,1,0,0,1,1.35.09h0A1,1,0,0,1,103,137.86Z" transform="translate(-2.53)"/><path id="Rectangle-17-28" data-name="Rectangle-17" class="cls-3" d="M81.88,156.46l-4.51,3.92a1,1,0,0,1-1.35-.09h0a1,1,0,0,1,.09-1.35L80.62,155a1,1,0,0,1,1.35.09h0A1,1,0,0,1,81.88,156.46Z" transform="translate(-2.53)"/><path id="Rectangle-17-29" data-name="Rectangle-17" class="cls-3" d="M123.95,162.62l-22.89,24.55a1,1,0,0,1-1.35,0h0a1,1,0,0,1,0-1.35l22.89-24.55a1,1,0,0,1,1.35,0h0A1,1,0,0,1,123.95,162.62Z" transform="translate(-2.53)"/><rect id="Rectangle-17-30" data-name="Rectangle-17" class="cls-3" x="46.25" y="122.22" width="39.42" height="1.91" rx="0.96" ry="0.96" transform="translate(-61.25 60.11) rotate(-35)"/><rect id="Rectangle-17-31" data-name="Rectangle-17" class="cls-3" x="53.28" y="130.78" width="39.42" height="1.91" rx="0.96" ry="0.96" transform="translate(-67.11 70.46) rotate(-37)"/><rect id="Rectangle-17-32" data-name="Rectangle-17" class="cls-3" x="61.19" y="138.86" width="38.64" height="1.91" rx="0.96" ry="0.96" transform="translate(-72.58 81.82) rotate(-39)"/></g><g id="Group-4-5" data-name="Group-4"><g class="cls-7"><polygon id="Rectangle-15-5" data-name="Rectangle-15" class="cls-2" points="95.29 267.76 39.53 297.13 0 182.32 62.05 171.21 95.29 267.76"/></g><path id="Rectangle-17-33" data-name="Rectangle-17" class="cls-3" d="M83.06,248.64L41.12,267.31a1,1,0,0,1-1.26-.49h0a1,1,0,0,1,.49-1.26l41.94-18.67a1,1,0,0,1,1.26.49h0A1,1,0,0,1,83.06,248.64Z" transform="translate(-2.53)"/><path id="Rectangle-17-34" data-name="Rectangle-17" class="cls-3" d="M78.79,235.61l-42.57,17.2a1,1,0,0,1-1.25-.53h0A1,1,0,0,1,35.5,251l42.57-17.2a1,1,0,0,1,1.25.53h0A1,1,0,0,1,78.79,235.61Z" transform="translate(-2.53)"/><rect id="Rectangle-17-35" data-name="Rectangle-17" class="cls-3" x="46.85" y="226.06" width="28.7" height="1.91" rx="0.96" ry="0.96" transform="translate(-76.48 34.62) rotate(-20)"/><rect id="Rectangle-17-36" data-name="Rectangle-17" class="cls-3" x="33.38" y="234.67" width="9.57" height="1.91" rx="0.96" ry="0.96" transform="translate(-80.81 27.26) rotate(-20)"/><path id="Rectangle-17-37" data-name="Rectangle-17" class="cls-3" d="M87,260.47l-37,18a1,1,0,0,1-1.28-.44h0a1,1,0,0,1,.44-1.28l37-18a1,1,0,0,1,1.28.44h0A1,1,0,0,1,87,260.47Z" transform="translate(-2.53)"/><rect id="Rectangle-17-38" data-name="Rectangle-17" class="cls-3" x="14.49" y="189.92" width="47.83" height="1.91" rx="0.96" ry="0.96" transform="translate(-47.56 14.96) rotate(-14)"/><rect id="Rectangle-17-39" data-name="Rectangle-17" class="cls-3" x="18.74" y="202.66" width="47.83" height="1.91" rx="0.96" ry="0.96" transform="translate(-57 19.64) rotate(-16)"/><rect id="Rectangle-17-40" data-name="Rectangle-17" class="cls-3" x="24.2" y="215.08" width="46.87" height="1.91" rx="0.96" ry="0.96" transform="translate(-66.96 25.29) rotate(-18)"/></g><g id="Group-4-6" data-name="Group-4"><g class="cls-8"><polygon id="Rectangle-15-6" data-name="Rectangle-15" class="cls-2" points="175.34 200.82 228.66 234.42 149 326.07 108.35 277.88 175.34 200.82"/></g><path id="Rectangle-17-41" data-name="Rectangle-17" class="cls-3" d="M168.69,223.16l37.14,27a1,1,0,0,1,.21,1.34h0a1,1,0,0,1-1.34.21l-37.14-27a1,1,0,0,1-.21-1.34h0A1,1,0,0,1,168.69,223.16Z" transform="translate(-2.53)"/><path id="Rectangle-17-42" data-name="Rectangle-17" class="cls-3" d="M159.55,233.38l36.18,28.27a1,1,0,0,1,.17,1.34h0a1,1,0,0,1-1.34.17l-36.18-28.27a1,1,0,0,1-.17-1.34h0A1,1,0,0,1,159.55,233.38Z" transform="translate(-2.53)"/><rect id="Rectangle-17-43" data-name="Rectangle-17" class="cls-3" x="159.94" y="238.56" width="1.91" height="28.7" rx="0.96" ry="0.96" transform="translate(-138.79 213.6) rotate(-50)"/><rect id="Rectangle-17-44" data-name="Rectangle-17" class="cls-3" x="178.92" y="263.77" width="1.91" height="9.57" rx="0.96" ry="0.96" transform="translate(-144 233.72) rotate(-50)"/><path id="Rectangle-17-45" data-name="Rectangle-17" class="cls-3" d="M177,213.82l34.1,23a1,1,0,0,1,.26,1.33h0a1,1,0,0,1-1.33.26l-34.1-23a1,1,0,0,1-.26-1.33h0A1,1,0,0,1,177,213.82Z" transform="translate(-2.53)"/><rect id="Rectangle-17-46" data-name="Rectangle-17" class="cls-3" x="140.03" y="266.8" width="1.91" height="47.83" rx="0.96" ry="0.96" transform="translate(-164.91 179.53) rotate(-44)"/><rect id="Rectangle-17-47" data-name="Rectangle-17" class="cls-3" x="148.95" y="256.76" width="1.91" height="47.83" rx="0.96" ry="0.96" transform="translate(-158.65 193.54) rotate(-46)"/><rect id="Rectangle-17-48" data-name="Rectangle-17" class="cls-3" x="157.21" y="246.71" width="1.91" height="46.87" rx="0.96" ry="0.96" transform="translate(-150.95 206.92) rotate(-48)"/></g><g id="Group-4-7" data-name="Group-4"><g id="Group-2"><g id="Rectangle-15-7" data-name="Rectangle-15"><g class="cls-9"><polygon id="path-7" points="67.75 90.19 120.54 113.45 149.28 6.19 91.92 0 67.75 90.19"/></g><polygon id="path-7-2" data-name="path-7" class="cls-2" points="67.75 90.19 120.54 113.45 149.28 6.19 91.92 0 67.75 90.19"/></g></g><path id="Rectangle-17-49" data-name="Rectangle-17" class="cls-3" d="M82.62,71.85L122,86.17a1,1,0,0,0,1.23-.57h0a1,1,0,0,0-.57-1.23L83.28,70.05a1,1,0,0,0-1.23.57h0A1,1,0,0,0,82.62,71.85Z" transform="translate(-2.53)"/><path id="Rectangle-17-50" data-name="Rectangle-17" class="cls-3" d="M85.69,59.69L125.5,72.63a1,1,0,0,0,1.21-.61h0a1,1,0,0,0-.61-1.21L86.28,57.87a1,1,0,0,0-1.21.61h0A1,1,0,0,0,85.69,59.69Z" transform="translate(-2.53)"/><path id="Rectangle-17-51" data-name="Rectangle-17" class="cls-3" d="M89.18,48.19l23.41,6.71a1,1,0,0,0,1.18-.66h0a1,1,0,0,0-.66-1.18L89.71,46.35a1,1,0,0,0-1.18.66h0A1,1,0,0,0,89.18,48.19Z" transform="translate(-2.53)"/><rect id="Rectangle-17-52" data-name="Rectangle-17" class="cls-3" x="121.77" y="52.64" width="1.91" height="8.75" rx="0.96" ry="0.96" transform="translate(31.56 159.28) rotate(-74)"/><path id="Rectangle-17-53" data-name="Rectangle-17" class="cls-3" d="M79.76,82.9l34.75,14a1,1,0,0,0,1.25-.53h0a1,1,0,0,0-.53-1.25l-34.75-14a1,1,0,0,0-1.25.53h0A1,1,0,0,0,79.76,82.9Z" transform="translate(-2.53)"/><rect id="Rectangle-17-54" data-name="Rectangle-17" class="cls-3" x="118.67" y="-5.69" width="1.91" height="43.77" rx="0.96" ry="0.96" transform="translate(80.38 131.2) rotate(-80)"/><rect id="Rectangle-17-55" data-name="Rectangle-17" class="cls-3" x="115.62" y="6.21" width="1.91" height="43.77" rx="0.96" ry="0.96" transform="translate(62.33 136.28) rotate(-78)"/><rect id="Rectangle-17-56" data-name="Rectangle-17" class="cls-3" x="111.86" y="18.3" width="1.91" height="42.9" rx="0.96" ry="0.96" transform="translate(44.43 139.6) rotate(-76)"/></g></g></g></g></svg>