<svg id="Layer_1" data-name="Layer 1" xmlns="http://www.w3.org/2000/svg" viewBox="0 0 255.2 296.46"><defs><style>.cls-1{fill:#fff;}.cls-2{fill:#d8d8d8;}</style></defs><title>tutorial icon_v2</title><g id="Page-1"><g id="Tutorial-4"><g id="Group"><g id="Group-4"><polygon id="Rectangle-15" class="cls-1" points="187.31 73.45 234.58 78.59 210.83 167.2 167.34 147.97 187.31 73.45"/><path id="Rectangle-17" class="cls-2" d="M188.6,91.68l33.83,6a0.89,0.89,0,0,1,.69,1h0a0.89,0.89,0,0,1-1,.69l-33.83-6a0.89,0.89,0,0,1-.69-1h0A0.89,0.89,0,0,1,188.6,91.68Z"/><path id="Rectangle-17-2" class="cls-2" d="M185.79,101.65l33.62,7.12a0.89,0.89,0,0,1,.66,1h0a0.89,0.89,0,0,1-1,.66l-33.62-7.12a0.89,0.89,0,0,1-.66-1h0A0.89,0.89,0,0,1,185.79,101.65Z"/><path id="Rectangle-17-3" class="cls-2" d="M183.53,111.33l19.35,4.82a0.89,0.89,0,0,1,.62,1h0a0.89,0.89,0,0,1-1,.62L183.12,113a0.89,0.89,0,0,1-.62-1h0A0.89,0.89,0,0,1,183.53,111.33Z"/><path id="Rectangle-17-4" class="cls-2" d="M208.58,117.41l5.34,1.34a0.89,0.89,0,0,1,.62,1h0a0.89,0.89,0,0,1-1,.62l-5.34-1.34a0.89,0.89,0,0,1-.62-1h0A0.89,0.89,0,0,1,208.58,117.41Z"/><path id="Rectangle-17-5" class="cls-2" d="M191.12,82.59l30.46,4.32a0.89,0.89,0,0,1,.72,1h0a0.89,0.89,0,0,1-1,.72l-30.46-4.35a0.89,0.89,0,0,1-.72-1h0A0.89,0.89,0,0,1,191.12,82.59Z"/><path id="Rectangle-17-6" class="cls-2" d="M175.07,140.66h0a0.85,0.85,0,0,1,1.09-.51l32.3,11.75A0.85,0.85,0,0,1,209,153h0a0.85,0.85,0,0,1-1.09.51l-32.3-11.75A0.85,0.85,0,0,1,175.07,140.66Z"/><path id="Rectangle-17-7" class="cls-2" d="M177.58,131.48h0a0.85,0.85,0,0,1,1.08-.54l32.69,10.62a0.85,0.85,0,0,1,.55,1.07h0a0.85,0.85,0,0,1-1.08.54l-32.69-10.62A0.85,0.85,0,0,1,177.58,131.48Z"/><path id="Rectangle-17-8" class="cls-2" d="M179.86,122.29h0a0.85,0.85,0,0,1,1.06-.58L213.26,131a0.85,0.85,0,0,1,.59,1.05h0a0.85,0.85,0,0,1-1.06.58l-32.34-9.27A0.85,0.85,0,0,1,179.86,122.29Z"/></g><g id="Group-4-2"><polygon id="Rectangle-15-2" class="cls-1" points="203.93 154.43 249.58 167.7 210.82 250.84 171.33 224.34 203.93 154.43"/><path id="Rectangle-17-9" class="cls-2" d="M202,172.6l32.3,11.76a0.89,0.89,0,0,1,.51,1.09h0a0.89,0.89,0,0,1-1.09.51l-32.3-11.76a0.89,0.89,0,0,1-.51-1.09h0A0.89,0.89,0,0,1,202,172.6Z"/><path id="Rectangle-17-10" class="cls-2" d="M197.5,181.94l31.87,12.88a0.89,0.89,0,0,1,.47,1.11h0a0.89,0.89,0,0,1-1.11.47l-31.87-12.88a0.89,0.89,0,0,1-.47-1.11h0A0.89,0.89,0,0,1,197.5,181.94Z"/><path id="Rectangle-17-11" class="cls-2" d="M193.65,191.06l18.22,8.11a0.89,0.89,0,0,1,.44,1.12h0a0.89,0.89,0,0,1-1.12.44L193,192.62a0.89,0.89,0,0,1-.44-1.12h0A0.89,0.89,0,0,1,193.65,191.06Z"/><path id="Rectangle-17-12" class="cls-2" d="M217.24,201.41l5,2.24a0.89,0.89,0,0,1,.44,1.12h0a0.89,0.89,0,0,1-1.12.44l-5-2.24a0.89,0.89,0,0,1-.44-1.12h0A0.89,0.89,0,0,1,217.24,201.41Z"/><path id="Rectangle-17-13" class="cls-2" d="M205,164.64a0.89,0.89,0,0,1,1.08-.54l29.26,9.51a0.89,0.89,0,0,1,.54,1.08h0a0.89,0.89,0,0,1-1.08.54L231,174l-25.38-8.24a0.89,0.89,0,0,1-.55-1.08h0Z"/><path id="Rectangle-17-14" class="cls-2" d="M180.2,218.49h0a0.85,0.85,0,0,1,1.17-.31l29.76,17.18a0.85,0.85,0,0,1,.32,1.16h0a0.85,0.85,0,0,1-1.17.31l-29.76-17.18A0.85,0.85,0,0,1,180.2,218.49Z"/><path id="Rectangle-17-15" class="cls-2" d="M184.28,209.89h0a0.85,0.85,0,0,1,1.15-.35l30.35,16.14a0.85,0.85,0,0,1,.36,1.15h0a0.85,0.85,0,0,1-1.15.35L184.63,211A0.85,0.85,0,0,1,184.28,209.89Z"/><path id="Rectangle-17-16" class="cls-2" d="M188.12,201.24h0a0.85,0.85,0,0,1,1.14-.39L219.5,215.6a0.85,0.85,0,0,1,.4,1.14h0a0.85,0.85,0,0,1-1.14.39l-30.24-14.75A0.85,0.85,0,0,1,188.12,201.24Z"/></g><g id="Group-4-3"><polygon id="Rectangle-15-3" class="cls-1" points="184.2 36.81 136.94 41.95 160.68 130.55 204.17 111.32 184.2 36.81"/><path id="Rectangle-17-17" class="cls-2" d="M182.89,55l-33.83,6a0.89,0.89,0,0,0-.69,1h0a0.89,0.89,0,0,0,1,.69l33.83-6a0.89,0.89,0,0,0,.69-1h0A0.89,0.89,0,0,0,182.89,55Z"/><path id="Rectangle-17-18" class="cls-2" d="M185.72,65l-33.62,7.12a0.89,0.89,0,0,0-.66,1h0a0.89,0.89,0,0,0,1,.66l33.62-7.12a0.89,0.89,0,0,0,.66-1h0A0.89,0.89,0,0,0,185.72,65Z"/><path id="Rectangle-17-19" class="cls-2" d="M188,74.68L168.61,79.5a0.89,0.89,0,0,0-.62,1h0a0.89,0.89,0,0,0,1,.62l19.35-4.82a0.89,0.89,0,0,0,.62-1h0A0.89,0.89,0,0,0,188,74.68Z"/><path id="Rectangle-17-20" class="cls-2" d="M162.92,80.76l-5.34,1.34a0.89,0.89,0,0,0-.62,1h0a0.89,0.89,0,0,0,1,.62l5.34-1.34a0.89,0.89,0,0,0,.62-1h0A0.89,0.89,0,0,0,162.92,80.76Z"/><path id="Rectangle-17-21" class="cls-2" d="M180.38,46l-30.47,4.28a0.89,0.89,0,0,0-.72,1h0a0.89,0.89,0,0,0,1,.72l30.43-4.29a0.89,0.89,0,0,0,.72-1h0A0.89,0.89,0,0,0,180.38,46Z"/><path id="Rectangle-17-22" class="cls-2" d="M163,115.26l32.3-11.75a0.85,0.85,0,0,1,1.09.51h0a0.85,0.85,0,0,1-.51,1.09l-32.3,11.75a0.85,0.85,0,0,1-1.09-.51h0A0.85,0.85,0,0,1,163,115.26Z"/><path id="Rectangle-17-23" class="cls-2" d="M160.16,104.9l32.69-10.62a0.85,0.85,0,0,1,1.08.54h0a0.85,0.85,0,0,1-.55,1.07l-32.69,10.62a0.85,0.85,0,0,1-1.08-.54h0A0.85,0.85,0,0,1,160.16,104.9Z"/><path id="Rectangle-17-24" class="cls-2" d="M158.41,93.54l32.3-9.42a0.85,0.85,0,0,1,1.06.58h0a0.85,0.85,0,0,1-.58,1.06l-32.3,9.42a0.85,0.85,0,0,1-1.06-.58h0A0.85,0.85,0,0,1,158.41,93.54Z"/></g><g id="Group-4-4"><polygon id="Rectangle-15-4" class="cls-1" points="118.76 151.8 88.29 186.59 31.02 118.33 70.6 94.41 118.76 151.8"/><path id="Rectangle-17-25" class="cls-2" d="M103.5,142.7L79.89,166.32a0.89,0.89,0,0,1-1.2,0h0a0.89,0.89,0,0,1,0-1.2l23.57-23.62a0.89,0.89,0,0,1,1.2,0h0A0.89,0.89,0,0,1,103.5,142.7Z"/><path id="Rectangle-17-26" class="cls-2" d="M97.14,134.91L72.72,157.68a0.89,0.89,0,0,1-1.2,0h0a0.89,0.89,0,0,1,0-1.2L95.93,133.7a0.89,0.89,0,0,1,1.2,0h0A0.89,0.89,0,0,1,97.14,134.91Z"/><path id="Rectangle-17-27" class="cls-2" d="M90.68,127.73L76.09,140.43a0.89,0.89,0,0,1-1.2-.08h0a0.89,0.89,0,0,1,.08-1.2l14.61-12.69a0.89,0.89,0,0,1,1.2.08h0A0.89,0.89,0,0,1,90.68,127.73Z"/><path id="Rectangle-17-28" class="cls-2" d="M71.88,144.29l-4,3.49a0.89,0.89,0,0,1-1.2-.08h0a0.89,0.89,0,0,1,.08-1.2l4-3.51a0.89,0.89,0,0,1,1.2.08h0A0.89,0.89,0,0,1,71.88,144.29Z"/><path id="Rectangle-17-29" class="cls-2" d="M109.33,149.77L89,171.63a0.89,0.89,0,0,1-1.2,0h0a0.89,0.89,0,0,1,0-1.2l20.38-21.85a0.89,0.89,0,0,1,1.2,0h0A0.89,0.89,0,0,1,109.33,149.77Z"/><path id="Rectangle-17-30" class="cls-2" d="M43.55,123.54L70.9,104.39a0.85,0.85,0,0,1,1.19.21h0a0.85,0.85,0,0,1-.21,1.19L44.53,124.93a0.85,0.85,0,0,1-1.19-.21h0A0.85,0.85,0,0,1,43.55,123.54Z"/><path id="Rectangle-17-31" class="cls-2" d="M50.13,131.65l26.66-20.09a0.85,0.85,0,0,1,1.19.16h0a0.85,0.85,0,0,1-.17,1.19L51.15,133a0.85,0.85,0,0,1-1.19-.16h0A0.85,0.85,0,0,1,50.13,131.65Z"/><path id="Rectangle-17-32" class="cls-2" d="M57.42,139.09l25.4-20.57a0.85,0.85,0,0,1,1.2.12h0a0.85,0.85,0,0,1-.13,1.2l-25.4,20.57a0.85,0.85,0,0,1-1.2-.12h0A0.85,0.85,0,0,1,57.42,139.09Z"/></g><g id="Group-4-5"><polygon id="Rectangle-15-5" class="cls-1" points="86.07 243.36 36.44 269.51 1.25 167.31 56.48 157.42 86.07 243.36"/><path id="Rectangle-17-33" class="cls-2" d="M72.93,226.34L35.6,243a0.89,0.89,0,0,1-1.12-.44h0a0.89,0.89,0,0,1,.44-1.12l37.33-16.62a0.89,0.89,0,0,1,1.12.44h0A0.89,0.89,0,0,1,72.93,226.34Z"/><path id="Rectangle-17-34" class="cls-2" d="M69.13,214.74L31.24,230.05a0.89,0.89,0,0,1-1.11-.47h0a0.89,0.89,0,0,1,.47-1.14l37.89-15.31a0.89,0.89,0,0,1,1.11.47h0A0.89,0.89,0,0,1,69.13,214.74Z"/><path id="Rectangle-17-35" class="cls-2" d="M42,210.37l22.4-8.15a0.85,0.85,0,0,1,1.09.51h0a0.85,0.85,0,0,1-.51,1.09L42.57,212a0.85,0.85,0,0,1-1.09-.51h0A0.85,0.85,0,0,1,42,210.37Z"/><path id="Rectangle-17-36" class="cls-2" d="M29.49,215.12l6.4-2.33a0.85,0.85,0,0,1,1.09.51h0a0.85,0.85,0,0,1-.51,1.09l-6.4,2.33a0.85,0.85,0,0,1-1.09-.51h0A0.85,0.85,0,0,1,29.49,215.12Z"/><path id="Rectangle-17-37" class="cls-2" d="M76.44,236.87l-32.94,16a0.89,0.89,0,0,1-1.14-.39h0a0.89,0.89,0,0,1,.39-1.14l32.94-16a0.89,0.89,0,0,1,1.14.39h0A0.89,0.89,0,0,1,76.44,236.87Z"/><path id="Rectangle-17-38" class="cls-2" d="M13.16,179l39.65-9.89a0.85,0.85,0,0,1,1,.62h0a0.85,0.85,0,0,1-.62,1l-39.65,9.89a0.85,0.85,0,0,1-1-.62h0A0.85,0.85,0,0,1,13.16,179Z"/><path id="Rectangle-17-39" class="cls-2" d="M17.09,191.07l39.28-11.26a0.85,0.85,0,0,1,1.06.58h0a0.85,0.85,0,0,1-.59,1.05L17.56,192.71a0.85,0.85,0,0,1-1.06-.58h0A0.85,0.85,0,0,1,17.09,191.07Z"/><path id="Rectangle-17-40" class="cls-2" d="M22.11,202.69l38.05-12.36a0.85,0.85,0,0,1,1.08.54h0a0.85,0.85,0,0,1-.55,1.07L22.63,204.31a0.85,0.85,0,0,1-1.08-.54h0A0.85,0.85,0,0,1,22.11,202.69Z"/></g><g id="Group-4-6"><polygon id="Rectangle-15-6" class="cls-1" points="157.33 183.78 204.79 213.69 133.88 295.27 97.7 252.37 157.33 183.78"/><path id="Rectangle-17-41" class="cls-2" d="M149.16,203.66l33.06,24a0.89,0.89,0,0,1,.19,1.19h0a0.89,0.89,0,0,1-1.19.19l-33.06-24a0.89,0.89,0,0,1-.19-1.19h0A0.89,0.89,0,0,1,149.16,203.66Z"/><path id="Rectangle-17-42" class="cls-2" d="M141,212.76l32.21,25.16a0.89,0.89,0,0,1,.15,1.19h0a0.89,0.89,0,0,1-1.19.15L140,214.1a0.89,0.89,0,0,1-.15-1.19h0A0.89,0.89,0,0,1,141,212.76Z"/><path id="Rectangle-17-43" class="cls-2" d="M132.44,221.94h0a0.85,0.85,0,0,1,1.2-.1l18.26,15.32a0.85,0.85,0,0,1,.11,1.2h0a0.85,0.85,0,0,1-1.2.1l-18.26-15.32A0.85,0.85,0,0,1,132.44,221.94Z"/><path id="Rectangle-17-44" class="cls-2" d="M155.85,241.33h0a0.85,0.85,0,0,1,1.2-.1l5.22,4.38a0.85,0.85,0,0,1,.11,1.2h0a0.85,0.85,0,0,1-1.2.1L156,242.53A0.85,0.85,0,0,1,155.85,241.33Z"/><path id="Rectangle-17-45" class="cls-2" d="M156.55,195.35l30.35,20.47a0.89,0.89,0,0,1,.23,1.18h0a0.89,0.89,0,0,1-1.18.23L155.6,196.76a0.89,0.89,0,0,1-.23-1.18h0A0.89,0.89,0,0,1,156.55,195.35Z"/><path id="Rectangle-17-46" class="cls-2" d="M109.71,248.48h0a0.85,0.85,0,0,1,1.21,0l28.39,29.4a0.85,0.85,0,0,1,0,1.21h0a0.85,0.85,0,0,1-1.21,0l-28.39-29.4A0.85,0.85,0,0,1,109.71,248.48Z"/><path id="Rectangle-17-47" class="cls-2" d="M117.13,240.08h0a0.85,0.85,0,0,1,1.21,0l29.4,28.39a0.85,0.85,0,0,1,0,1.21h0a0.85,0.85,0,0,1-1.21,0l-29.4-28.39A0.85,0.85,0,0,1,117.13,240.08Z"/><path id="Rectangle-17-48" class="cls-2" d="M124.29,231.53h0a0.85,0.85,0,0,1,1.2-.06l29.73,26.77a0.85,0.85,0,0,1,.07,1.2h0a0.85,0.85,0,0,1-1.2.06l-29.73-26.77A0.85,0.85,0,0,1,124.29,231.53Z"/></g><g id="Group-4-7"><g id="Group-2"><g id="Rectangle-15-7"><polygon id="path-7" points="61.56 85.3 108.55 106 134.13 10.53 83.07 5.01 61.56 85.3"/><polygon id="path-7-2" class="cls-1" points="61.56 85.3 108.55 106 134.13 10.53 83.07 5.01 61.56 85.3"/></g></g><path id="Rectangle-17-49" class="cls-2" d="M72.54,69L107.6,81.72a0.89,0.89,0,0,0,1.09-.51h0a0.89,0.89,0,0,0-.51-1.09L73.13,67.37a0.89,0.89,0,0,0-1.09.51h0A0.89,0.89,0,0,0,72.54,69Z"/><path id="Rectangle-17-50" class="cls-2" d="M75.27,58.15l35.44,11.52a0.89,0.89,0,0,0,1.08-.54h0a0.89,0.89,0,0,0-.54-1.08L75.8,56.53a0.89,0.89,0,0,0-1.08.54h0A0.89,0.89,0,0,0,75.27,58.15Z"/><path id="Rectangle-17-51" class="cls-2" d="M78.38,47.91l20.84,6a0.89,0.89,0,0,0,1.05-.59h0a0.89,0.89,0,0,0-.59-1.05l-20.83-6a0.89,0.89,0,0,0-1.05.59h0A0.89,0.89,0,0,0,78.38,47.91Z"/><path id="Rectangle-17-52" class="cls-2" d="M104.5,54.7h0a0.85,0.85,0,0,1,1.06-.58l5.84,1.68a0.85,0.85,0,0,1,.59,1.05h0a0.85,0.85,0,0,1-1.06.58l-5.84-1.68A0.85,0.85,0,0,1,104.5,54.7Z"/><path id="Rectangle-17-53" class="cls-2" d="M70,78.81l30.93,12.46A0.89,0.89,0,0,0,102,90.8h0a0.89,0.89,0,0,0-.47-1.11L70.64,77.22a0.89,0.89,0,0,0-1.11.47h0A0.89,0.89,0,0,0,70,78.81Z"/><path id="Rectangle-17-54" class="cls-2" d="M86.3,16.06h0a0.85,0.85,0,0,1,1-.69L124,21.84a0.85,0.85,0,0,1,.69,1h0a0.85,0.85,0,0,1-1,.69L87,17A0.85,0.85,0,0,1,86.3,16.06Z"/><path id="Rectangle-17-55" class="cls-2" d="M83.71,26h0a0.85,0.85,0,0,1,1-.65l36.44,7.75a0.85,0.85,0,0,1,.66,1h0a0.85,0.85,0,0,1-1,.65L84.37,27A0.85,0.85,0,0,1,83.71,26Z"/><path id="Rectangle-17-56" class="cls-2" d="M80.9,35.78h0a0.85,0.85,0,0,1,1-.62L117.33,44a0.85,0.85,0,0,1,.62,1h0a0.85,0.85,0,0,1-1,.62L81.52,36.81A0.85,0.85,0,0,1,80.9,35.78Z"/></g></g></g></g></svg>