<svg id="Layer_1" data-name="Layer 1" xmlns="http://www.w3.org/2000/svg" viewBox="0 0 255.68 142.84"><defs><style>.cls-1{fill:#b0dae4;}.cls-2{fill:#594e81;}.cls-3{fill:#5a749c;}.cls-4{fill:#ebba16;}.cls-5{fill:#ed8a19;}.cls-6{fill:#e0e1e2;}.cls-7{fill:#d75a4a;}.cls-8{fill:#db7b1b;}.cls-9{fill:#c4c4c4;}.cls-10{fill:#b74c44;}.cls-11{fill:#ebd6bd;}.cls-12{fill:#4c4c4c;}</style></defs><title>tutorial icon_v2</title><g id="Page-1"><g id="Tutorial-1"><g id="Group-3"><g id="notebook-"><g id="Capa_1" data-name="Capa 1"><path id="Shape" class="cls-1" d="M159.2,130.05H70.28V7.49H159.2a7,7,0,0,1,7,7V123a7,7,0,0,1-6.94,7.06H159.2Z"/><rect id="Rectangle-path" class="cls-2" x="140.48" y="7.5" width="11.7" height="122.55"/><g id="Group"><rect id="Rectangle-path-2" class="cls-3" x="70.28" y="47.58" width="70.2" height="42.43"/><rect id="Rectangle-path-3" class="cls-3" x="152.18" y="47.58" width="14.04" height="42.43"/></g><polygon id="Shape-2" class="cls-4" points="93.68 141.84 86.66 137.13 79.64 141.84 79.64 130.05 93.68 130.05 93.68 141.84"/></g></g><g id="Group-2"><path id="Shape-3" class="cls-5" d="M198.35,20.83a6.89,6.89,0,0,0-1.48,0,6.89,6.89,0,0,1,1.48,0h0Z"/><rect id="Rectangle-path-4" class="cls-6" x="193.11" y="34.03" width="7.58" height="7.64" transform="matrix(0.09, -1, 1, 0.09, 142.03, 230.7)"/><path id="Shape-4" class="cls-7" d="M196.19,21.29a3.75,3.75,0,0,0-1.94,3h0a3.75,3.75,0,0,1,1.94-3h0Z"/><path id="Shape-5" class="cls-7" d="M202.18,21.17l-3.83-.34a3.82,3.82,0,0,0-1.5.17,3.61,3.61,0,0,0-.67.29,3.75,3.75,0,0,0-1.94,3l-0.83,9.47L201,34.43l1.16-13.22h0v0Z"/><rect id="Rectangle-path-5" class="cls-8" x="165.01" y="74.35" width="72.05" height="7.64" transform="translate(105.65 271.63) rotate(-85)"/><rect id="Rectangle-path-6" class="cls-9" x="200.71" y="34.69" width="7.58" height="7.64" transform="translate(148.32 238.87) rotate(-85)"/><path id="Shape-6" class="cls-10" d="M208.64,35.06l0.83-9.47a3.75,3.75,0,0,0-1.35-3.26,3.79,3.79,0,0,0-2.1-.84l-3.83-.34L201,34.39l7.61,0.67h0Z"/><polygon id="Shape-7" class="cls-11" points="201.71 114.38 186.49 113.05 192.94 126.94 201.71 114.38"/><path id="Shape-8" class="cls-12" d="M190.71,130.55a1.91,1.91,0,0,0,3.8.33l0.66-7.55-3.8-.33-0.66,7.55h0Z"/><rect id="Rectangle-path-7" class="cls-5" x="157.4" y="73.68" width="72.05" height="7.64" transform="translate(99.37 263.44) rotate(-85)"/></g></g></g></g></svg>