<svg id="Layer_1" data-name="Layer 1" xmlns="http://www.w3.org/2000/svg" viewBox="0 0 239.42 146.84"><defs><style>.cls-1{fill:#b0dae4;}.cls-2{fill:#fff;}.cls-3{fill:#d8d8d8;}.cls-4{fill:#e0e1e2;}.cls-5{fill:#d75a4a;}.cls-6{fill:#db7b1b;}.cls-7{fill:#c4c4c4;}.cls-8{fill:#b74c44;}.cls-9{fill:#ebd6bd;}.cls-10{fill:#4c4c4c;}.cls-11{fill:#ed8a19;}.cls-12{fill:#ebba16;}</style></defs><title>tutorial icon_2</title><g id="Page-1"><g id="Tutorial-2"><g id="Group-6"><g id="Group-4"><rect id="Rectangle-11" class="cls-1" x="100" y="8" width="10" height="121" transform="translate(-6.26 9.31) rotate(-5)"/><g id="Group-3"><g id="Group"><path id="Shape" class="cls-1" d="M202.9,120.4l-87.67,7.67L104.71,7.79l87.67-7.67a7,7,0,0,1,7.52,6.33l9.31,106.41a7,7,0,0,1-6.31,7.54h0Z" transform="translate(-0.69 -0.1)"/><path id="Shape-2" data-name="Shape" class="cls-1" d="M17.54,136.62l87.67-7.67L94.69,8.67,7,16.34A7,7,0,0,0,.71,23.88L10,130.29a7,7,0,0,0,7.52,6.33h0Z" transform="translate(-0.69 -0.1)"/><rect id="Rectangle-15" class="cls-2" x="109.78" y="10.91" width="84" height="106" transform="translate(-5.68 13.37) rotate(-5)"/><rect id="Rectangle-15-2" data-name="Rectangle-15" class="cls-2" x="16.08" y="19.1" width="84" height="106" transform="matrix(1, -0.09, 0.09, 1, -6.75, 5.24)"/><g id="Group-5"><path id="Rectangle-17" class="cls-3" d="M119.27,37.46l55.79-4.88a1,1,0,0,1,1.08.91h0a1,1,0,0,1-.91,1.08l-55.79,4.88a1,1,0,0,1-1.08-.91h0A1,1,0,0,1,119.27,37.46Z" transform="translate(-0.69 -0.1)"/><path id="Rectangle-17-2" data-name="Rectangle-17" class="cls-3" d="M120.32,49.41l55.79-4.88a1,1,0,0,1,1.08.91h0a1,1,0,0,1-.91,1.08l-55.79,4.88a1,1,0,0,1-1.08-.91h0A1,1,0,0,1,120.32,49.41Z" transform="translate(-0.69 -0.1)"/><path id="Rectangle-17-3" data-name="Rectangle-17" class="cls-3" d="M144.27,59.36l27.89-2.44a1,1,0,0,1,1.08.91h0a1,1,0,0,1-.91,1.08l-27.89,2.44a1,1,0,0,1-1.08-.91h0A1,1,0,0,1,144.27,59.36Z" transform="translate(-0.69 -0.1)"/><path id="Rectangle-17-4" data-name="Rectangle-17" class="cls-3" d="M118.22,25.51L165,21.41a1,1,0,0,1,1.08.91h0a1,1,0,0,1-.91,1.08L118.4,27.5a1,1,0,0,1-1.08-.91h0A1,1,0,0,1,118.22,25.51Z" transform="translate(-0.69 -0.1)"/><path id="Rectangle-17-5" data-name="Rectangle-17" class="cls-3" d="M124.5,97.23l35.86-3.14a1,1,0,0,1,1.08.91h0a1,1,0,0,1-.91,1.08l-35.86,3.14a1,1,0,0,1-1.08-.91h0A1,1,0,0,1,124.5,97.23Z" transform="translate(-0.69 -0.1)"/><path id="Rectangle-17-6" data-name="Rectangle-17" class="cls-3" d="M123.45,85.28l55.79-4.88a1,1,0,0,1,1.08.91h0a1,1,0,0,1-.91,1.08l-55.79,4.88a1,1,0,0,1-1.08-.91h0A1,1,0,0,1,123.45,85.28Z" transform="translate(-0.69 -0.1)"/><path id="Rectangle-17-7" data-name="Rectangle-17" class="cls-3" d="M135.31,60.15l3-.26a1,1,0,0,1,1.08.91h0a1,1,0,0,1-.91,1.08l-3,.26a1,1,0,0,1-1.08-.91h0A1,1,0,0,1,135.31,60.15Z" transform="translate(-0.69 -0.1)"/><path id="Rectangle-17-8" data-name="Rectangle-17" class="cls-3" d="M121.36,61.37l8-.7a1,1,0,0,1,1.08.91h0a1,1,0,0,1-.91,1.08l-8,.7a1,1,0,0,1-1.08-.91h0A1,1,0,0,1,121.36,61.37Z" transform="translate(-0.69 -0.1)"/><path id="Rectangle-17-9" data-name="Rectangle-17" class="cls-3" d="M122.41,73.32l55.79-4.88a1,1,0,0,1,1.08.91h0a1,1,0,0,1-.91,1.08l-55.79,4.88a1,1,0,0,1-1.08-.91h0A1,1,0,0,1,122.41,73.32Z" transform="translate(-0.69 -0.1)"/></g></g></g></g><g id="Group-2"><path id="Shape-3" data-name="Shape" class="cls-3" d="M209.5-14.59" transform="translate(-0.69 -0.1)"/><rect id="Rectangle-path" class="cls-4" x="218.12" y="15.81" width="7.58" height="7.64" transform="translate(63.55 176.91) rotate(-50)"/><path id="Shape-4" data-name="Shape" class="cls-5" d="M230.82,5.67A3.75,3.75,0,0,0,227.54,7h0a3.75,3.75,0,0,1,3.29-1.32h0Z" transform="translate(-0.69 -0.1)"/><path id="Shape-5" data-name="Shape" class="cls-5" d="M235.81,9l-2.95-2.47a3.82,3.82,0,0,0-1.32-.72,3.61,3.61,0,0,0-.72-0.15A3.75,3.75,0,0,0,227.54,7l-6.11,7.28,5.85,4.91L235.81,9h0Z" transform="translate(-0.69 -0.1)"/><rect id="Rectangle-path-2" data-name="Rectangle-path" class="cls-6" x="166.15" y="51.22" width="72.05" height="7.64" transform="translate(29.37 174.44) rotate(-50)"/><rect id="Rectangle-path-3" data-name="Rectangle-path" class="cls-7" x="223.97" y="20.72" width="7.58" height="7.64" transform="translate(61.88 183.14) rotate(-50)"/><path id="Shape-6" data-name="Shape" class="cls-8" d="M233.12,24.09l6.11-7.28a3.75,3.75,0,0,0,.73-3.46,3.79,3.79,0,0,0-1.21-1.85L235.81,9l-8.53,10.17,5.85,4.91h0Z" transform="translate(-0.69 -0.1)"/><polygon id="Shape-7" data-name="Shape" class="cls-9" points="181.26 84.99 169.56 75.18 166.88 90.25 181.26 84.99"/><path id="Shape-8" data-name="Shape" class="cls-10" d="M163.67,92a1.91,1.91,0,0,0,2.92,2.45l4.87-5.81-2.92-2.45L163.67,92h0Z" transform="translate(-0.69 -0.1)"/><rect id="Rectangle-path-4" data-name="Rectangle-path" class="cls-11" x="160.3" y="46.31" width="72.05" height="7.64" transform="translate(31.04 168.2) rotate(-50)"/></g><polygon id="Shape-9" data-name="Shape" class="cls-12" points="47.11 145.63 39.78 141.61 33.27 146.84 32.25 135.28 46.1 134.06 47.11 145.63"/></g></g></g></svg>