<svg id="Layer_1" data-name="Layer 1" xmlns="http://www.w3.org/2000/svg" viewBox="0 0 254.53 147.82"><defs><style>.cls-1{fill:#b0dae4;}.cls-2{fill:#fff;}.cls-3{fill:#d8d8d8;}.cls-4{fill:#e0e1e2;}.cls-5{fill:#d75a4a;}.cls-6{fill:#db7b1b;}.cls-7{fill:#c4c4c4;}.cls-8{fill:#b74c44;}.cls-9{fill:#ebd6bd;}.cls-10{fill:#4c4c4c;}.cls-11{fill:#ed8a19;}.cls-12{fill:#ebba16;}</style></defs><title>tutorial icon_v2</title><g id="Page-1"><g id="Tutorial-2"><g id="Group-6"><g id="Group-4"><rect id="Rectangle-11" class="cls-1" x="106.56" y="8.88" width="10" height="121" transform="translate(-5.62 9.99) rotate(-5)"/><g id="Group-3"><g id="Group"><path id="Shape" class="cls-1" d="M209.46,121.28L121.79,129,111.27,8.67,198.94,1a7,7,0,0,1,7.52,6.33l9.31,106.41a7,7,0,0,1-6.31,7.54h0Z"/><path id="Shape-2" class="cls-1" d="M24.1,137.5l87.67-7.67L101.25,9.55,13.56,17.22a7,7,0,0,0-6.29,7.54l9.29,106.41a7,7,0,0,0,7.52,6.33h0Z"/><rect id="Rectangle-15" class="cls-2" x="116.34" y="11.79" width="84" height="106" transform="matrix(1, -0.09, 0.09, 1, -5.04, 14.05)"/><rect id="Rectangle-15-2" class="cls-2" x="22.9" y="19.88" width="84.34" height="106.43" transform="matrix(1, -0.09, 0.09, 1, -6.29, 6.13)"/><g id="Group-5"><path id="Rectangle-17" class="cls-3" d="M125.83,38.34l55.79-4.88a1,1,0,0,1,1.08.91h0a1,1,0,0,1-.91,1.08L126,40.33a1,1,0,0,1-1.08-.91h0A1,1,0,0,1,125.83,38.34Z"/><path id="Rectangle-17-2" class="cls-3" d="M126.88,50.29l55.79-4.88a1,1,0,0,1,1.08.91h0a1,1,0,0,1-.91,1.08l-55.79,4.88a1,1,0,0,1-1.08-.91h0A1,1,0,0,1,126.88,50.29Z"/><path id="Rectangle-17-3" class="cls-3" d="M150.83,60.24l27.89-2.44a1,1,0,0,1,1.08.91h0a1,1,0,0,1-.91,1.08L151,62.23a1,1,0,0,1-1.08-.91h0A1,1,0,0,1,150.83,60.24Z"/><path id="Rectangle-17-4" class="cls-3" d="M124.78,26.39l46.78-4.1a1,1,0,0,1,1.08.91h0a1,1,0,0,1-.91,1.08L125,28.38a1,1,0,0,1-1.08-.91h0A1,1,0,0,1,124.78,26.39Z"/><path id="Rectangle-17-5" class="cls-3" d="M131.06,98.11L166.92,95a1,1,0,0,1,1.08.91h0a1,1,0,0,1-.91,1.08l-35.86,3.14a1,1,0,0,1-1.08-.91h0A1,1,0,0,1,131.06,98.11Z"/><path id="Rectangle-17-6" class="cls-3" d="M130,86.16l55.79-4.88a1,1,0,0,1,1.08.91h0a1,1,0,0,1-.91,1.08l-55.79,4.88a1,1,0,0,1-1.08-.91h0A1,1,0,0,1,130,86.16Z"/><path id="Rectangle-17-7" class="cls-3" d="M141.87,61l3-.26a1,1,0,0,1,1.08.91h0a1,1,0,0,1-.91,1.08L142,63a1,1,0,0,1-1.08-.91h0A1,1,0,0,1,141.87,61Z"/><path id="Rectangle-17-8" class="cls-3" d="M127.92,62.25l8-.7a1,1,0,0,1,1.08.91h0a1,1,0,0,1-.91,1.08l-8,.7a1,1,0,0,1-1.08-.91h0A1,1,0,0,1,127.92,62.25Z"/><path id="Rectangle-17-9" class="cls-3" d="M129,74.2l55.79-4.88a1,1,0,0,1,1.08.91h0a1,1,0,0,1-.91,1.08l-55.79,4.88a1,1,0,0,1-1.08-.91h0A1,1,0,0,1,129,74.2Z"/></g></g></g></g><g id="Group-2"><rect id="Rectangle-path" class="cls-4" x="224.69" y="16.7" width="7.58" height="7.64" transform="translate(65.9 182.35) rotate(-50)"/><path id="Shape-4" class="cls-5" d="M237.38,6.55a3.75,3.75,0,0,0-3.28,1.33h0a3.75,3.75,0,0,1,3.29-1.32h0Z"/><path id="Shape-5" class="cls-5" d="M242.37,9.88l-2.95-2.47a3.82,3.82,0,0,0-1.32-.72,3.61,3.61,0,0,0-.72-0.15,3.75,3.75,0,0,0-3.28,1.34L228,15.16l5.85,4.91,8.53-10.19h0Z"/><rect id="Rectangle-path-2" class="cls-6" x="172.72" y="52.1" width="72.05" height="7.64" transform="translate(31.72 179.88) rotate(-50)"/><rect id="Rectangle-path-3" class="cls-7" x="230.54" y="21.6" width="7.58" height="7.64" transform="translate(64.23 188.59) rotate(-50)"/><path id="Shape-6" class="cls-8" d="M239.68,25l6.11-7.28a3.75,3.75,0,0,0,.73-3.46,3.79,3.79,0,0,0-1.21-1.85l-2.94-2.5L233.84,20,239.69,25h0Z"/><polygon id="Shape-7" class="cls-9" points="188.51 85.97 176.81 76.16 174.13 91.23 188.51 85.97"/><path id="Shape-8" class="cls-10" d="M170.23,92.88a1.91,1.91,0,0,0,2.92,2.45L178,89.52l-2.92-2.45-4.87,5.81h0Z"/><rect id="Rectangle-path-4" class="cls-11" x="166.86" y="47.19" width="72.05" height="7.64" transform="translate(33.4 173.64) rotate(-50)"/></g><polygon id="Shape-9" class="cls-12" points="54.36 146.61 47.03 142.59 40.52 147.82 39.5 136.26 53.35 135.04 54.36 146.61"/></g></g></g></svg>