<svg id="Layer_1" data-name="Layer 1" xmlns="http://www.w3.org/2000/svg" viewBox="0 0 49.88 49.88"><defs><style>.cls-1{fill:#fff;}</style></defs><title>twitter</title><g id="Page-1"><g id="about"><g id="twitter"><g id="Layer_1-2" data-name="Layer 1"><g id="Group"><path id="Combined-Shape" class="cls-1" d="M24.94,0A24.94,24.94,0,1,1,0,24.94,24.94,24.94,0,0,1,24.94,0ZM40.53,16.8a12.42,12.42,0,0,1-3.49.93,6,6,0,0,0,2.67-3.27,12.32,12.32,0,0,1-3.86,1.43A6.16,6.16,0,0,0,31.42,14a6,6,0,0,0-6.08,5.9,5.73,5.73,0,0,0,.16,1.35A17.43,17.43,0,0,1,13,15.12a5.73,5.73,0,0,0-.82,3A5.85,5.85,0,0,0,14.85,23a6.18,6.18,0,0,1-2.75-.74v0.07A6,6,0,0,0,17,28.11a6.29,6.29,0,0,1-1.6.21,6.13,6.13,0,0,1-1.14-.11,6.06,6.06,0,0,0,5.68,4.1,12.43,12.43,0,0,1-7.55,2.53,12.78,12.78,0,0,1-1.45-.08,17.59,17.59,0,0,0,9.32,2.65A16.91,16.91,0,0,0,37.52,20.62l0-.76A12.13,12.13,0,0,0,40.53,16.8Z"/></g></g></g></g></g></svg>