<svg id="Layer_1" data-name="Layer 1" xmlns="http://www.w3.org/2000/svg" viewBox="0 0 13.38 13.38"><defs><style>.cls-1{fill:#fff;}</style></defs><title>x icon</title><g id="Page-1"><g id="mobile-chart-with-guide"><g id="Group-4"><g id="Group-2"><path id="Shape" class="cls-1" d="M13,11.33L8.33,6.69,13,2A1.18,1.18,0,0,0,13,.33a1.18,1.18,0,0,0-1.69,0L6.67,5,2,0.33A1.18,1.18,0,0,0,.33.33,1.18,1.18,0,0,0,.33,2L5,6.67,0.33,11.31A1.18,1.18,0,0,0,.33,13,1.18,1.18,0,0,0,2,13L6.67,8.35,11.31,13A1.18,1.18,0,0,0,13,13a1.16,1.16,0,0,0,0-1.67h0Z" transform="translate(0.02 0.02)"/></g></g></g></g></svg>